<mxfile host="app.diagrams.net" modified="2022-03-19T19:06:07.120Z" agent="5.0 (Windows NT 10.0; Win64; x64) AppleWebKit/537.36 (KHTML, like Gecko) Chrome/99.0.4844.74 Safari/537.36" etag="BeMiWA3BhYZ0JT7s-Ljr" version="17.1.3" type="github">
  <diagram id="_Vnn6iTnybM8C79T5a7L" name="Page-1">
    <mxGraphModel dx="782" dy="478" grid="1" gridSize="10" guides="1" tooltips="1" connect="1" arrows="1" fold="1" page="1" pageScale="1" pageWidth="827" pageHeight="1169" math="0" shadow="0">
      <root>
        <mxCell id="0" />
        <mxCell id="1" parent="0" />
        <mxCell id="xT05KYagtxd6T3jCuXym-1" value="" style="shape=image;verticalLabelPosition=bottom;labelBackgroundColor=default;verticalAlign=top;aspect=fixed;imageAspect=0;image=data:image/png,iVBORw0KGgoAAAANSUhEUgAAAggAAAHMCAYAAACwbVBcAAAAAXNSR0IArs4c6QAAIABJREFUeF7s3QWYHEX6BvAK7hbcD3fXw/UguLu7ux1wcDhBL7jL4QQ/4HB3OFyDB/cQLMDB//kV/8oNy26yszvZndn9Os88m5nprqp+u6e/t95Pqsevv/76a4otEAgEAoFAIBAIBAKBCgR6BEGI+yEQCAQCgUAgEAgEmiIQBCHuiUAgEAgEAoFAIBD4AwJBEOKmCAQCgUAgEAgEAoEgCHEPBAKBQCAQCAQCgcDQEQgFYegYxR6BQCAQCAQCgUC3QyAIQre75HHCgUAgEAgEAoHA0BEIgjB0jGKPQCAQCAQCgUCg2yEQBKHbXfI44UAgEAgEAoFAYOgIBEEYOkaxRyBQEwRKTbIePXr8rj2fN/2sJh02aaSl/lvqq9r9hzbm5s6zNedey3E07a+yTlxHXIOhYRTfBwL1hEAQhHq6GjGWTkWAsfj+++/Tjz/+mMdRjEf5+/PPP6dvv/02TTTRRGmkkUZK33zzTfrll1/yvsW4FANUjhluuOHS6KOPnvx96KGH0vDDD58WWmih9N///je/Pvzww/Taa6+lP//5z2msscYa4vlr09h++umnwX1qt4y38mDjG3nkkdPHH3+c+/d67LHHknNYeOGF89i/+OKLNOWUU6YRRxzxD/1q89FHH00TTjhhmn766fO4KzftaLuMpWkD9nesMdg+//zz9NJLL6UZZpghfw6vF154If/1WeUYtO06lGNvu+221LNnz4yb8y3bDz/8kPcb2qZt52977rnn0qSTTpommGCCNHDgwHTvvfemmWaaKV+L8cYbL40//vi/62Nobcf3gUBXRiAIQle+unFuVSHA2F155ZXp4YcfzgbR6+uvv87Gi4FhRBioLbbYIhvzs88+OxtZhnvQoEFphBFGyAZPOwy0fe231VZbpamnnjr97W9/y5/5e88996RPP/00G6Vrr702HXLIIWmqqaYaopKg3euuuy49/vjj+bwYUMbtvvvuy2PQdiEoiy++eFp55ZVzu0svvXRaZpll0v7775/GHnvsdPDBB6fbb7893XjjjWnDDTdMSy211B+MovPeY489slHebLPN8vlUbgz+3//+90wSKo22fZCmcccdNx1wwAH5nOB25513posuuijtueeeae65586f7bfffmnMMcdMe++9dxpjjDHyuRfiYN9VVlklzTXXXGn77bfPJOXAAw8cPA7nafxe2iokzfGFtJVxzTbbbGm77bZLCMWuu+6a1l9//YzN+++/n/baa6+06qqrpn79+uXvvUceYgsEAoGUgiDEXRAI/L9a8Prrr6f//Oc/6csvv8xGDzFggP70pz+l+eefPxOGUUYZJZMFn5llezGmJ5xwQlpnnXXSqKOOms4555xsaMxGGVYzZkTC588//3z6y1/+ko0TIzfxxBOnRx55JK277rpZmWDMHNfcxhAa38UXX5wGDBiQ1lhjjTyOCy+8ML377rtprbXWSv/617/ybBspYSgZ6dVWWy23yejOOeecmSw4/uabb85jM54FF1wwjTbaaIO7/eyzz9Iuu+ySyQOCUGbzZYdPPvkk7bbbbmm66abLxyNHNudEKXFOxx57bCYISI2XYxCa+eabLxOP3XffPRMWxh9ODPc000yTz8f++p988skzEdEOI1/6YcQ/+OCDjOdNN92USQJDjyA8+OCDWZmBj3FPMskk+by1a/9DDz00kwD7ICkzzzxzxt5xzsW1aKqYxI8kEOiOCARB6I5XPc75DwgwpiR4hq3MQM3YH3jggWxgGLYyQ2fMFllkkUT6fvHFFzMp4CZgzBiWt956K8vmjqccbLLJJunyyy/PBo1hXmGFFTLxQBoYNDNXM2hqg1myGbbPm/OPm7kfeeSR2cCuvvrqeUxnnXVWevbZZ7NBPuyww7LbYOedd86fnX766dmtgPR4TTHFFIONvc8dT8XQb5k567d///5pxx13TMstt1zadttt8zlWboy977/77rt8fKWK8NVXX+XxH3/88XksxmUsMHz11VczKUIE7rrrrjTPPPNkdwd3A7UDhs7hlVdeyeqCdrUH1+KC8f999903u2VgShXQtrEicBSWN954Ix1xxBH53F1P5+Mcd9hhh3zNvH/vvfey68P44aJ97Wy00UbNul3iZxMIdDcEgiB0tyse59siAozJ3XffnQ0/lYBhefLJJ7PhZNB878X4+v64445L44wzTjbWJ598clp77bWzIT333HOzlM7IUSXMwM2IEQJtkfx79+6dZ9AMmT7N+M1iEQr9msFXEgQzZ4a1zIDtSz0wFm6RZ555JrdZZts+RzwYQCqHsTLm+iyzcED4P8OIBJXPC1k66KCD8uzajLupqsGoP/HEEzkmo+mGHJi5cw8gPsblXLgKzjvvvKyCMP5LLrlknq0jDfoym3/55ZezskFNYLSRrH/84x+ZONgXYfCaccYZc9tXXHFFVga0Z9/JJpss48L1gcBceuml+VohKhdccEHG3/ltvfXWuR2qCgUD2SpuIdegEqP4yQQC3RWBIAjd9crHef8BAUaMQSHTr7feetlIkPMZo8UWWyy7BS655JJ05plnZmme0RXIx7CYnTNYjA6jyegyWHPMMUfaeOONszrBz+1zxkhwHP8/Of6GG27IrgAGUVvIBFWgMgDQLFcMAfKCUHBF6JP7QFvGxq9+xx13ZNLC3cA9wE3CkJtxIzck/bIxlJQOM20GtmziKfRP9eCuYLy5ICoDMRl5WBhjiR0oLobyVxwE2R9BML6VVlopjx95oEoYNyJgJv/Xv/41k5tbbrklY8iAc3kgIsWVIVbB+VAQ4CTg0NiXX3751KtXr3TZZZdl9QaZowQha8aGKDD6rhU3zwYbbJDxQ/6QEQTKflxFiBAS47xjCwS6OwJBELr7HRDnPxiBQhCuueaabFwRhFtvvTUbbrI/WV2wHeNppmp2zkCKpD/88MPTLLPMko1Ppf9aGwL2GKCjjjoqG0ezeIGKZHVGm4FizJAHMvuss86aZ/+VG6NpX8aWRE4huOqqq7IxJKkjJWb7XB1kdnI7VUI7yAHlwSxa+0gCo3zqqadm5YCk75hi2N988820zz775O8oGbPPPnuOqShuBjgJsjzmmGNyP8iSfozPPoiHwEuxDjvttFMmUkgNAiVzgFthzTXXzGNBEMQkUCmOPvroTAAY+fPPPz8HcerLuTn/EiMBH4QKgUESjJO60KdPnxwron+qiv7FLRgf9QT+VByKDoKDOHFfIAXcCnCdd955/5AtET+RQKC7IhAEobte+TjvZhUERteLpF0i6ouPmpEhXfOpmxFzJTAwPi8GDDlAGIqxZBTFIHArmCEjCAw2o45gMEqMldk/t8ECCyyQ3Q6yDLRRjDbywJgKRiSVIyLGybAaBzXB/xl7AX1mzciL2fD111+f1Qo+/2mnnTYbZ20wlmbuiE3px/mIHWA8tUXy79u3bza0FADnx2gz+KR/Rp1ET3kxNrN9hpxCwJALNERqEAiqAEnfTB2hOuOMMzKeAgO5aOyH5DgXiotjvLQNmxVXXDH373pQNJAX+/773//OLyqI8cjq4HJBYJA6ZIibQewG8oAwIDywcG4UHKmPghaNd9FFF41Ux3g+BALSt3+tdHQGJIHAUBBormiNzzx4GcnOKgJUiwtXghLNwp2T9yR7ZIEk7fwYKEaccWFMBTFSFBgVnzNSXARmwttss01+T/L3ngFHEBhl7cBM+4xUCdCDH+PMmFe6GLRjlkxtYOhE5T/11FNZjTjppJOywdx8881zCiOlQDAeYoAgiOZHUkj6J554YpbnvczuxQGUFEYG0syd8XcMg84IM7Rvv/12Nvpm5YwtA+w8N9100xwoaPYuk8BxFAdGGkYUBoZfcCaCc/XVV+fzcg5cGUiQWA2EwXkIEqx8JFEPnAsSQjUosQFwKjUgkCnHcuXoAwlRc0EfcOS2cCyy4Bj9FneO8VCMuCC4Qz766KN8TkOrSVGL+y3aCATqHYEgCPV+hepofB7mpGoPe8V2GDsPc1I53zLptkTCM35mlORiQXxmgh6+TQkEuVvwXT1UsSNpOw8zzlLPQIyA8fHVF1+7WS7/OkPHEFEB7r///mxMS/odF4WZMUPkeMYTQSDlS4fk/4adAD0yOT86VwTjLjq/uTQ7/cNTLILv+cmpBfpGMCgB4gUKQRAjQOlYYokl8jWiVLgGDDzVw6yZ4UVsjJHLwViWXXbZTB7M1I0bYWGAzfbN4l1nxlZMBaLg/BlYY7Gva40cUE20rV0uCeeHVCE3YgeMictB3QmKwWmnnZazC2Be1JNC2twn3DwlWwIJ4Q7g8hGoKEaEakK9QBAoCkiRdp2rsdjXvatNBABR0L+/XEbwg6X6FhGDUEcPnhhKpyEQBKHToG+8jknngvbMyMzqzCbN6MzgyO5mnwyFzQNeKp8IcwV3GBdSeEldQyA8uBkvcm/TPPuORsd4BKwxIqXwDgNOhjc2roKyeS/Q0MyXggAXBgVxENDIeCIOXAUMk5k9w8YHjiAwZmauTcU7BIB/njugueqG+ueWMMNneJEE7oCSHukcGF6kxOwf5j5TowFZY2DhjexwcQjk40Jg9KVeihXwnZk4clA2eCCG1AjxAggEVeCdd97JhEjKp+MdAy9KRSneRC0pwYNUFv0aLyKjDaTFGMUOCEJkoN1PlepJZXBkGRPFBLlhzKk7SAsCYpNSyX2BjLhurhUyJEgRORKzIM4CfsbOTeHeRBDh435tCf+Ovi+jv0CgMxEIgtCZ6DdY3wyahygiYJYqrc+DlERrlogMFIJQjCvjxGiWwDFGgaSNHDA4/MHS20qQXGdCYnZpRjm0jcFi5Bhg+/u/GS4DVWa4ou8RBYSIEYUHQuFYGDUNQix9lqqNQ1JUKss564OhE2gHY24C+HpfaimYlfuOHx/O5fNSbtm4jdO1dS4tXQuGVBCiMSIHSKBjEYNKxaNce+fIGMNJn3DQBuPvuusP5kgmggXDEncwtGtQ3CRUG/1XEkzniqhoy37GWMZXcC01IHyOAHGTIF+uDZdQbIFAIBAxCHEPtBIBD33GyMsDVa65B7rPRYybsUkhMwO1eeA+/fTTeRZnVmZGKerczJmREajGR0wSrheC0EooBu/WXDzGkNqodv9qxxP7tw+BQrza10ocHQh0HQRCQeg613KYnglSINqbemAmKKhM8J7ZIHmWv5taQPq1kXMFtwmqI62T3PmKEQSzPQRBxDmy0KgEYZgCHo0HAoFAINDJCARB6OQL0Cjdm12Rc/npBfKJOeBmEGXOd61egFQ4/muyLgLAx01ZEFlPXudSEIlPoib/UhUEhgm6qwcXQ6NcixhnIBAIBAIdgUAQhI5AuYv0gSRIyxMlLsiM7xdBEIgmEpzfm9uAf9lGNVAQiELAJ8wVUek/L0FiitQ0XS2wVpBRPqgc/kZGb61Q7X7tlIW66iHbpvuhH2fcWQgEQegs5Buw30IQBCQKKpO+KNhLaWKEgdtB9T6FeDxQEQSfy7WXuieAT/S4iHfR60hFqVhYaziMVRCeFfooHoLqBKGVhZhq3V+017URUDKbqywCGLv2dY6z+z0CQRDijmg1AoxuSWmUNiafXUqbVDGLE1ELpPZZXU+dBDn+CtTIWFApUI69mANEQjyDXHUlg6X9Va4G2OoBtbCjcRqHmAh5/1LzBE82XXWwvf3E8d0HAVkeSMKwUrq6D5Jxpo2EQBCERrpanTxWUr1MBHn4KtYJTPTARAwUyVEwxyxLZoIyvYyzyn1y++Xbc0dwQUgl851SvbIdqAxy2msl3xqnGAkkQY0FGReISS1JSCdfiug+EAgEAoFhjkAQhGEOcdfpgB8fCeBWUBRIISSLBZmhM+6+V+iGlK9sLReCSn6CEv/5z3/msrtcDfYl9aukd9NNN+WVE1XeqxVBEBBp3QMFilQzjC0QCAQCgUCgegSCIFSPWbc/ogQaMvKVS/0CxndeTWfryAKiUPm545EKhXJqRQ70LeZAQKQ0S8WBYgsEAoFAIBCoHoEgCNVjFkfUMQIIgiwLJX2tH9DZJZzrGKoYWiAQCAQCQ0QgCELcIF0KAQRBvQX1+K1TEAShS13eOJlAIBDoQASCIHQg2NHVsEcgCMKwxzh6CAQCge6BQBCE7nGdu81ZBkH47VJ31LoC1awvMaz2HdY395DG3dx3zWFfzblXnk9HXcdhjWG035gIBEFozOsWo24BgXomCNal8FJWWmBmazfnpJZEqQbpfWXBJwGgSldPNtlkORDUio5WUJx99tnzfo5tWkVS2qcxOE5WiiWrbZZH9r7SoGlT6mrJVCnjVh1Tyqu0VamsJQC1ZKnYryyb7LwtjS0F1TLhTZdTrhyfLJgnn3wyTTfddDm7pWyl/+bOpymWzo17yb6V59Mc5vZ1fnA0zmKUfWZTMtxnantUlgSHnawdKb5WLLUpBAZ7NRMsLV02mTVSfWXyaMM10lfZrKKp+FhlEK+VLhX4kgLsesUWCHQ0AkEQOhrx6G+YItAegsB4ecArimOZ4lplVjhh41IY6swzz8x1I+add95W48DIWe/C6pjGpEolI8qoFMPNuOy9995p4oknTpdddlm6/vrr0yGHHJLXxFCYqtIYMULbbrttNr7qRVhjQ7tW3WSUFLQqBAYpsQDXgQcemGtXqIDJ4Nrsqx+ZIksvvfTgIkIM2muvvZbPWb0M43UOamIgBrvvvvvg2BBj0c5bb7012DD369cvLwqmUucqq6wyOFPGImH63mWXXfIqoS2VztYmfBXvKguFNUfICtGypoj1QuCG8JSloY0TJlJmjVtJcZiX6/n666/nOhtbb711LgSmPeeoQNgRRxyRr0XZrFUiLdi1MD7Hudf83zmtvvrq+bxKISbX6/TTT89rnCg8pvpo5ZLarb55YsdAoB0IBEFoB3hxaP0h0B6CwFAysnPPPXeu8FjLB7JxedifddZZ2RipHdGajYFWLho5MMs3Jp9ZE4MRNHtl3M0wzVjN5Blc3zNuilP16dMnbbPNNtkoG8eFF16YevXqlZZddtn08MMP5+JXqmKuvfbaeXwIkkW1EKbrrrsuz6yRGgoAggMfY2DELPmtf2PzngGdf/75M+m49NJLM0FgAGWVvP3223nfMmaKxx577JGeeeaZvF4HklOCSpum0CJExswYM+Jm75UbQ6tPGCNFyn2rr4EkITCl/LdjPv3001x/Y/nll0/PP//84JLgxqsfuFi6HDGgYvirCuduu+2WFRZjMwbZMkgCooUUrbPOOnnfgQMH5uJcSAlMvVc5lBqw4oorZhXBfosvvngmX4jAFFNMkRc7s45JITNffvllrgaKSCg8VstaIa2592KfQCAIQhe9BzzEPNg9uD30PKSsTeDFaHjAdtV1CcjTzs1srposBoZjn332aZYgMIiMgba1ucACC+Tlrm1mv4wcXD3ofcdYO0Y1R98xLAwXY4wgMO4M2kMPPZRn11a19EIA7rzzznws6f69997Ls0wFqlxPBl4/jPVss82Wx8Do2qcYWHUgnAtDzBgxfAzxtddem2e6ZsrKW1sH47HHHsvfMz6Ml1mu2flcc82Vx6BfBla1S30iDM4PseBiQEgYNMZPn85LkSztadfaBUgEid3xFA8EwiybAUQ4+vfvn5cCRwAY4jJD97e4FZT0ZjzXWGONP9y3CIj2GGzj0P9qq62WsVLqG47GU1QH18FKoopoad81pZCoDKotxb+oKEgRXJ17UWiQJ7jA0PnBEPHhMrDmiHHCx3bXXXdlo+9egJtriRRQI7SPjCo4JtuGGwNpdJ2KSqENxEr1UQXG7F9L0tpFH31xWjVEIAhCDcHs7KbM+JABD2oPLQ93f4thKZK5hx4j11VLD6veyEVQbR2ElggCQyNt8uSTT87GiRFhrKgMjE/fvn3TPffck2fcjA9Du+mmm2ZCYQyIAHkcWdMHmZkR4jZALopf26qWZv3kZ4aOgSd/m7leffXVWUUgW2vHDNZMHiFh+PS97777ZuPF112M86KLLprl+h122CGrA9tvv30mKQwVgnHuuefmc2OYuQn0yYdeGYNgDL5zjlwKYgj8n2FHNBg8bgHHmX2bmTPIxuk7BAJBJbtrnwqArHC5WPgLSUIQyj3pPq3s3/8RWutpMJKV6yE4X4TKeTDEW2yxRY4V0C8lxVLiSBSC5rehtHdxfzincccdN6sI3AcwQ77giazByvXUZykf7roXgmD81BnrkyAnSJXrYwzOl8tggw02yITFvrfccktWShAH3xe3DNz8VpEFJKMoCM6bEuQ+cc6nnXbaYPWls5810X/3QCAIQoNf5xLAZkbioU2O/OSTT/IDZdZZZ80POlKuB6QHqAedv15dkSDAg0H00K+2DkJLBAEh4MtmzBkchuaMM87Is8fNNtsskzAGwPdmyrBnjBlixo+hEMTGiJlFk5cZoqOPPjobHwbs4osvzhK9WasXcsH3XAwwooEgMPiM5c0335xnqoiGfb3OPvvsPFv3HWNC8mbcfa7stHLXFBLyuXZI8E899VSePZPg11prrVyBkoEsG2PtnuEqUBq7+NFJ+Yw8ad2s1j1nuW/qiFm2jWuEsXNe1AIkB3FDIsyYKStm+PZHUuzHsFNUuADI9OIQysb4wqMyngAJ0QalRjwFI1uIsPNwvfwOuFhcN8bWeJFIpMAY/G5ggCAYAxWES+DQQw/NRAURdE0RO6QKSaQgeCGDsKcgMP7UG+oF5QSx06/rhFjBC3ly7R999NHBvz+EA4lHDCk+ZfzUPq4FuLsHSyxIZaBkgz++Yvh1jkAQhDq/QC0Nz4PLQ9eDlkEQQOZB6AEmep0s7MHelZWC5rBpTwxCSwSBwfKwJ2ObcTIQZoAe5ggCQ8JQIQEMhZm1mSUjzbAwHAx3iUFgjBAJvmdGFVFzvBUyGTnEgcFQKpqhYRy4SxgKBsa+DDm1YaaZZso+dAYWEUAQe/funcdAqmbASdtcC+4TxhR5MVNlyIzTct2MNMndWBisYrC5ELRjFoxMIEJbbrllbh9elYGC2iCFM+xIDAPs/PXv/mQYGffiftEPssAwaouUTl2gihgn4kStYDAdh+zCv3KDBRJApeGvd983JQjiCMj33Blm+c7TQmH6RRCoMZUuBjI/1wAlwG+ozOCpQjCzIX+IqGuOeMCBK8K+VIZNNtkkKyY77bRTdmEgDs5hpZVWyoRB9gMi4vpTIKgLrhv3i809hoy5VhtuuGH+rV911VWZqCJ3XZHcN+ijuEsPOwhCg11eDyIPRQ8YMzKGyizLg5asixCYIdUyAr+RIKolQSgPYfK9mbFZpwe+TT8Mgc8YF7N+D36Gm8E95ZRTcjAg48hwmDkzKtwRAucYRAZtxx13zMTAxhgxZgwrUoAoMM4MqeqQ1AcGxSwXWSDXc124B1x3s00qA4XAZ4y64EXyNYPNUJmBM+BIZJGtSdw+ozQhFGbelA/HUEl8ziVh7E888UQ21MgGDBAY91pJtaRUUCL0yeBvtdVW+XiYIEj6ZDylATrO8c6f2gAPBhCujD5sS0wC8kH94GZojiDAE4lqjiBoj6vANYCJGT81R19IT6WCgAQaEzWIi0GMhvvAOIzHGGBOPWDUXSPHOzeEjzIAO/EUFCwqkPNDQpAuZNLvk4pkrNwhiCR3A7XBPYAcuI7wgx2y5Jq7V+CgDcSwu/7GG+l51OhjDYLQQFfQg+Pdd9/NxsKs0QzWjNJMK9ap/+1CtpcgkPxt/PsewORcD3szfjI/haYYHKlpDLAZJ8MqkI27wWzWbJWxMUN3fRiDkolQUuAYG+0zuORkCpA2fY6UUBAQBAqGIDcGymYmjiAy8gxImWGbGZt9U5W4LBATpJHxNXZEg2ExS2f4GFv3k9mtmT9/OWmdAXV/MUoMOTeGmTOD5x408+ZHFzfA2PseeWCkxUEgG8gRoyhug3rA2GnLeYmvkEJYgjKRGTN64yDnGwsSRb0we2agi6uj1E9wnQtZptAImGyOIPjOOcOV8aUEmfGbhTPeZukCC4uLATmS0QFH6gKcjcXvyzkw6JSF4jLgPkKaEA1uJ+oI3AqZ0AfyTnnhNkHi3CeCJF0TyoD7w//dVzbkiprgPjIufdqM071DtYCfv0ESGugB3oBDDYLQABfNQ9mDRDCWB68HsJmsB19ENf/+AraHIDAOHtTcBGUjCzMCCICIcgqBmTVjJ4XNzJIhZGh8ZlbPeDLy5HAGhtE18+cfN7tUg8C1Y5zNRM1WzTLFDPjcGJyHa8yokfPN/pEIBsFsmD97kUUWyYpDWVHTGBEY8SiC/xCXQiiNzRgKsTSjZ+jLDJUKJde+FPBBSBARpKHErVBJ9Cl2AVbOSxAdoy3GhbsFWUCGihLA2CMWzs9M2L6Ij6BGNQ6oDYIqGUTjhwXjzFWCAFE8StCi2TM/vPE4R9gaB/wRIe0yvmXzHYJAceNasPkMUWLIkbNChJybLAbf+T/3wTXXXJMVB0qC3yBi7jMEy34wNhakR3wEBQHeVCMxMJQFLiMYu2/0haBQf2CHqDgnRMB133jjjXN7SADCI7AUMSuZOFQlagMy5l4SExGrlTbAA7yBhxgEoc4vnoePmSdiYFbCD2pGG5XVmr9w7SEIxZ9e6Vcvxrf0VmaulZ9Xflb2q5zZVbbn+6bf+b5pe6UdRkFsgRlq2RgrRs+strIiIeNSiggxZowbtwbDa2bOMBUVgK/bLBTBRGYQBDN1BtBWAgH1z5Ay5lwcgvL8lQmAACEA+tU2o29sjLJjGDbG2+fISKl/IJPA/UzpILVTGBAgs20Eik8eUdF3ZYEnhMEM3NjgwSWBLMHA+ZHpK33zyAA5XvvNFb6CO/eK8XPrwEqf/k/NoKSItyhphxQS+CBSxo5E+Z7rgFoEW0TR59ph9I0XieLSEAeB8CAWCI3AUH8Rf0ZfCicCZl/nioA2VQapSYgI9cBzICYIdf4Ab/DhBUGo4wvo4cjX62EwfjMNAAAgAElEQVRvZughWCTlOh52pw7NQ/+CCy7IFf8YkGrqIHTqwFvo3Pnw75fqhUMaY0lfNfNnzBhFx5otM6JmvaVMMcPDiPuMQoFwMvgIadMNeXG8MTiOUdUmbL33vePcrwgCNYHhKmP3V1+VxMj+XAv8/Y4xDu35v+9KeWTvC8HSVyHG9keS/NWXz5say1Jm2vk0Le1cScC04fiS3uk3pk/HNz3OuOBczhcOhcgUNaEUcXI+zhsuxup9SfnUn/cwKeO0r3PQtr8tGX/fG0OQg3r8xXatMQVBqNPrKYe7BLzxLZMfRcLHNmQEPNjJt/y9IspLkFvgFggEAoFAIFAdAkEQqsNrmO/NwPFNylnnY+WXJhWblcU2dATgJ2hMwBpZu6SNDf3I2CMQCAQCgUCgEoEgCHV2PwhYkqYm7kAwlHz1yFCo7iLxS0uTK/Xzm66SV11rsXcgEAgEAt0TgSAIdXTd+S5FsEuvYuCk2sVWPQJUBGlkorwFgQn2EtQlij/SwqrHM45oHATETLQUb9E4ZxEjrRcEgiDUyZUQ6FQKrYgCL4Vk6mR4DTeMkv0hHVAUvYC47lxAquEuYAy4TQiomCk9Mohwm+CLg5ogEAShDm4JxkxVNtkKUs6kOkUp1fZfGNHhagdw25TliNvfarQQCNQvAootycKILRCoBQJBEGqBYjvakGIlr5wcrrCNHOvKxWja0XQc+v8INK1DEMAEAl0VgVAOuuqV7ZzzCoLQObjnXhku+foqtylAo2JbkINOvCDRdSAQCAQCgcBgBIIgdOLNoFqcSnLKtKqbH+SgEy9GdB0IBAKBQCDwOwSCIHTSDSEo0QI1yrkqx2qFuNgCgUAgEAgEAoF6QSAIQidcCcFzatRbEMaCPOrZh++wEy5EdBkIBAKBQCDQIgJBEDr45hB3YLlbi8gsvvjiaaONNmr49QI6GMLoLhAIBAKBQKADEAiC0AEgV3ahyl+fPn3yCnOCE8sa8B08jOguEAgEAoFAIBAYIgJBEDrwBuFauOuuu9IZZ5yRFQTFkGILBAKBQCAQCATqEYEgCB10VbgWLMErW0HMAddClETtIPCjm0AgEAgEAoGqEQiCUDVkbTtAQaTLLrssF0U64ogjwrXQNhjjqEAgEAgEAoEOQiAIQgcATT3o379/OvDAA9Oaa66ZVl999cha6ADco4tAIBAIBAKBtiMQBKHt2LX6SOrBySefnN58883Uu3fvNProo7f62NgxEAgEAoFAIBDoDASCIAxj1KkHL7zwQjr44IPTnnvumRZbbLFQD4Yx5tF8IBAIBAKBQPsRCILQfgyH2MIPP/yQ9t9//zTqqKPmzIWRRx55GPcYzQcCgUAgEAgEAu1HIAhC+zFssQXqwZNPPpnrHRx33HFp1llnDfVgGOIdTQcCgUAgEAjUDoEgCLXD8g8tff/992nfffdNU001Vdp1113TSCONNAx7i6YDgUAgEAgEAoHaIRAEoXZY/q6lyqWcBShOP/30w6inaDYQCAQCgUAgEKg9AkEQao9pbvG7777LqzUOGDAgHX744VEUaRjhHM0GAoFAIBAIDBsEgiAMA1ypBy+++GIOSjzkkEPS7LPPPgx6iSYDgUAgEAgEAoFhh0AQhGGA7U8//ZROPfXU9Pbbb6djjz02jTLKKMOgl2gyEAgEAoFAIBAYdggEQagxttSDV199NR155JFpvfXWSyuvvHKNe4jmAoFAIBAIBAKBYY9AEIQaY2zFxgsuuCA99thj6ZhjjknjjTdejXuI5gKBQCAQCAQCgWGPQBCEGmP87bff5pTGFVdcMa211lpR96DG+EZzgUAgEAgEAh2DQBCEGuJMPbBa48UXX5wOOOCANN1009Ww9WgqEAgEIKC+iPVNrGnSo0ePDIq4H5lDPhthhBGaBYr77+uvv25xH99r29/RRhstt/3zzz+nH3/8MccRDTfccHEBAoFuhUAQhBpebg+ok046KT9Y9thjj1xeObZAoLsh8OWXX6a33norIcxD2vxOpplmmmzsn3nmmSHuP84446S55porG+lrr702r466zTbbZIP+1VdfpW+++SZdcsklaffdd8+FybT5zjvvJGMpm5TjK6+8Mqt7U0wxRf4YGdD21FNPnY/RhrZ22GGHTDT+85//pH//+99pq622SpNMMkl3u5Rxvt0cgSAINboBPGjefffd7F5QPfHPf/5zuBdqhG000zgI+B089dRTqU+fPnnm3dzGDTdo0KBsmP1WzNL9HXvssXO9EAYa2e7Zs2cafvjh86x/2mmnzTE91jIR46OEORLur1VSF1100XTWWWfltGKkA5G47rrr8lgKUbEuioXTKHvjjjtuJge2OeecM62yyirJ9+edd17ub6+99spKw1VXXZVuv/32tPfee6eJJpooj2/CCSeMNVUa55aMkbYDgSAI7QCv8lAS50033ZRfHmQeJrEFAt0RATP1jz/+eLABrsTALJ3hvu+++7Ixn2OOOdLzzz+f/3/YYYflmfzNN9+c7rjjjrwC6vjjj5/OP//8nDLse8G/zz33XLrtttuyosDIv//++5lcUC1mnnnmbPzXXHPNNNNMM6VbbrklvfHGG3k/xOTBBx9M88wzT5pgggnysCabbLK06qqrpjvvvDNdc8016dNPP81Kgt/vUkstlcf28ssvZ7KAyFAR1DcxztgCga6OQBCEGl1hUubRRx+dZy9bb711i37QGnUXzQQCdYsAY8xY//Of/8yz8bIx2Ouuu2664oor0o033pjOPffcNPHEE6dHHnkk/fWvf03LLrtsNtxm+a+99lp+P9ZYY+XvrWOCMGiTuvDFF1/kIOCzzz47jTHGGNl461MfhSAoUGahNMrAEksskauaXnrppVkt4GLQz0cffZR/t/369ctqhL7sv+SSS+bvnn766bTzzjtngmC8Pt9ggw3CfVi3d18MrJYIBEGoAZoeiE888UQ6/vjj09///vc8i4ktEOiuCPg9mHkz6H/6059yTID3ZvkHHnhgjiG4/vrrs5xfCIIl0WeZZZY05phjpvfeey8bZ6ufiuNhvMn63BB9+/bNLgOEHIG47LLL8oyewsCtoaw5dwRXgHE89NBD6cMPP8yEHUGw/0orrTQ4TgGZWGyxxfL+FAYFzuynL8SBWkG5MPajjjoqxyaE+7C73tnd77yDINTgmvOn8ot6mFiYKVZtrAGo0UTDIlAIArJMTVt66aWzm+D111/P2T1NCcLDDz+cjTzXnEXNuCC4Bo444ohMIE4//fTsJuCGUITs2WefzSRCDIIgQhuC4Jj1118/uw2QDeM488wzs9tAQCRlANlAWCgTlAifIwADBw7MMQy+p0ZMPvnkmQjoiyuDSiEWwTgdH1sg0B0QCIJQg6v82Wef5SAmM5O11147ghNrgGk00bgIFILAoK+wwgpp/vnnzy4FM/OWFATEgfLGcDP+Zv2zzTZbVhAQCwGLvXv3zgoDtwLCsOeee2ZijiTIZtC+wmTcAZtuumkOJOSqEB+ECAh+vPXWW7NigHjox7Hbb799dm2ccsopOdhRSuMNN9yQyQxyIVBR0KPYhZ122imnQMYWCHQHBIIgtPMqexgKfDL7OOigg7IPNLZAoDsjUAgCMmBmTlHz2QILLJCNumBABrjEIAhYpDaYqTO+soEEHnqPIDDyMh4QBDP5c845JxMELgzvbVQI6h03gCwFGRSXX355jjPgkigKAlcHlUJ74hhkQAholMkgPkGJdO6ELbbYIpOBSSedNMcgOF48w0ILLRQTgO58c3ezcw+C0M4LLuKZ3/KDDz7ID5eWirS0s5s4PBBoKAQYXgYaKRBL4HdiFs7giz249957M0EQW6A2wdVXX51/Rwyy9xQHvyffm9kjBE0Jwn777ZfTIEsMUCHpMgxKuuRFF12UPv/889w3lwKXwYwzzjiYIIhlOOGEExIVUA2T1VZbLY/R2Lbccsv0ySef5KBKx2+44YZp9dVXz2pGKdDUUBclBhsIVIlAEIQqAWu6O1lTgNXCCy+cNtlkk3hwtBPPOLxrIGDWTtpHmBlxBFoRIumPlkIXHIgQMMbUA4aagaYgMMjShRnkxx9/PGcSUAXECpD/uRhkLFgIjRIhtoBSoW2xA/YRg0AFsPlc6iSiQGnQH9LCffDKK6+kRRZZJMcelABHY6JAUDG0KxgSCUFquCB23HHHwcpF17hacRaBQPMIBEFo551B/jSTEfEc7oV2ghmHd1kEVDuUoogoIA0M7TLLLJMNr7gARl7aIjLBZafAkX0QAGRjueWWy+/t/69//Su3o07BSy+9lIMKzei9SvEjyoMgQ+4NBEGsApeCAEPEA0Gp3BAEFRMpBCVt0rjEPCy//PJ517vuuivHN0iZDKWwy96qcWIVCARBaMft4MF14YUX5ocZ3yffZWyBQCDQPALFeDcnz/uutZ8jE1wWZb2E1uCtfa9q1lPw+65m/9aMI/YJBBoJgSAI7bhaZi5qtCuestlmm8XDpB1Y1uOhlUarJQNWOe7WGKG2Gp0SaNca33db+6jHaxBjCgQCgc5DIAhCG7FnDLgXFFQRTT3ffPO1saU4rB4R4ONW7lfVPcFtjz76aPZ5V6pE6l+ovidFTgVNvnH77rbbbjm4TV0M/m2pe+4XbZCtN9poozTDDDM0e9qVMrkdGHuR+IL4HCfArpIklP35zMnpKgHy25PRlSk2DjNtUnlryEU9XosYUyAQCHQOAkEQ2oi7B7eHtpQt/k2+ydi6BgLKA5922mk5R15gnKp+J554Yi4TvPHGGw82tGUFwXvuuSfn0lvqG0HYfPPN03HHHZdz8i36I+fe/aJ64BlnnJEDWkXrN90YcH51aX7WHCiLDKkJgCQIvFMEyGZf6XlqB1hHwP677LJL9skbqzoAChRJzeN3N772FvAqLoKucZVrexZBvmqLZ7RWHwgEQWjjdRDdrJCKsq6WmI0HRBuBrLPDFNxRGEeKnjS3NdZYIxtqqXYWCFIQS3CdCH3R9SLdBa/J2UcoqAqi3hltxp6yMO+88+ZofXn2yKRI++aK7UjNQ0DEtAjOoxYo9mOrdHEYowWE1Bng3rr77rtzDMyxxx6b+/vHP/6RyYlxyrApxEYAYFs2fSNDiIusHSQoyML/kPTbR96aI31twTuOCQTqBYEgCG28EmZ1JF8PY4vCxNb4CFAOpNhRhRh3hXIoQ4yhPHmlgJ955pm8pLf8fqRBiV9Bc1LmkAb7MuoMNFJg9T9ZLtwQ8v+5LczqixJQiRoDjjhwEajypwJhc9Hy+pGut+CCC2ZXhSj9ffbZJ697gMAgKYyWksVe1gihNLSFxHJdcKOoJ2BMxiONsC1tNf4d8sczcL0pMxQbmRaxBQJdCYEgCG24mh4K5GSztosvvjgXc4mtsREoee7SVRl28Qb89mVjEEvRHAoA14O/77zzTr4XpMiZZTPOyIGZvfgDqa9IRlEhuBkYcka26WbpY8GulCnxC8UIO7YUGiqFgXxn3QEqh43q4V5EPrgwEBfxMRQuJY/bUh4YJohISeFVRtz5VOLS2Fe9dqN3PSLjoXZ4Rkv1gUAQhDZcBw9sszK+aSShuYd9G5qNQzoZAdK9HHwKAsNPURA/YIZIJZBHz0iS7hl5xXzEoVAD1ltvvXws+Z3h5o4w8+ZeYMSRDvsz/E3lebN0n1t7gDFX0Me9hZBYlph6odrfOuusM7jUrzZU9POy2V+8g8BE8QYqESph7P7k/mjLjB/hMR6BmVQTf9vSTidf1ug+EAgE2ohAEIQ2ACf+QE15hVgEpMVDsw0g1ukh5HvuAjEIlgqWoYIkKPXL2JrhM9QK/6jOJ9tBbX8k0f7iCNTrRyL79++f31uwiLFFQJqSA/eOdQFUFTQz1x8XhZUJkQ/BjpYhFoDInaCMsGPsq7BQWYuAwqDSH7cHxUJlQmSGG6zEMVQLuZUTuVWk8lJD4j6vFsHYPxBobASCILTh+gkQM7P661//mmdnsXUtBCgFAv6QAOsBmKVb5EcsgYV7rNqJGKj9L2iP0WeQBSwyolxOZvLFkCMIDL7qf003BEL1PrEJlAh9kKoZZiWJZT1oG0EQz1AC4czmLaVc5H41OQQRGq+xTjTRRPn+tAJhWwhCScu0MJLSxJSM2AKBQKB7IRAEocrr7cFpXXgBZ6ootsW3W2WXsXsHIsDgcwVYN2DVVVfNs3RGXGYBX7zMAS4GbgGuAK4HAavnn39+Vg0YeTNvxtv6AVwL7hHuAseUzYzfC4nwV7CrSHhuAsqDoENjMXsXYIiQbrPNNjl10eY48QjIBELzxBNP5EWOjAWRELhISVAmWPCcz6q5V93nsjMoKcgSwhNbIBAIdC8EgiBUeb0FoZFxzeoOPfTQbDxi6xoIMK58/Yzt3HPPnTMCEEErE7reDDxXAMPPDUEVsNiPFQIZ4D322CPP8M8888zs/7cgEOMu4NH3lRuXhZRH95O2ZAggA9IqzdipDbIUBB9aNwDBEHDI3WFjwLkyqBv6c7y+teE4KpcVCY0PUdhggw1yCmVr71ftS9WU1REEoWvc33EWgUC1CARBqBIxsrP4A8vCmmGGX7ZKAOt4dwGGZuGMtmvLVSA7QX0DEr7sALNxqX5iCq699tpsiPnnVdK0v/tBcKMARQZWkSLGuek6HcgI9wHS4RhkgutC1UXEQ1vSZ1XrVB1Rm+IjjLGUUu7Vq1dun5IlaFJqJteC8dlHcKOxi41QWVEGQmvv1yAIdXyjxtACgQ5CIAhClUCraMfPS2oWdR5b10IAEbCV+gPFFVA+K6lsDCiDzRDLcmia4uZzRMPWXN2AcnwJWuQuqOyzpM353hhKVcXKIEf76xfJqDy+8oo4zjlRDlpLDopCEQpC17q342wCgWoRCIJQBWIezmaYSusiCeGXrQK82LWhEGivglCITFkrAslBYpojKYUElbiKlqo0lmO1ZZ/KIlKIkFdLfRTSU+pJtFSzoGnb+imKTTUEq6Eudgw2EGgBgSAIVdwaZmLqH5B5FaSJNeGrAC92bSgE2kMQKCsWpZKSya3BzXHZZZflaoPiJAoBYKSRbGmcFrqSxikA9PXXX09SiStJhuJT2rKpUyFjQ70HRlugqPcKRYkD4XZh1AV5Si0tmzZPOumkPA5jK5ssD3Eexi041X6qaPp9ywgRlCx+o8R/NNSFjMEGAu1AIAhCFeDx6Qog44tWDCcqp1UBXuzaUAi0J4uBgT3ooINydoVsDLEWgiVLuiXDa6bO7WFRLC4aNSbmnHPOHEfh/2J9kAe/MQGY1qVAyu0r9ZLhVnFScSptO07wsGMFc2pfeWiLWJWNy0d6qkyTkh6KSEgFRRpsxopYSBE1PoqhmBC/e+TGeGSDxOSgoW7nGGwbEQiCUAVw0tc8KAQpqpAXkmMV4HXCroyc4D4ZAWapZpotydedMLy67tK9bd0Js//evXtX5U6DsZoQCjcxptJGN9lkk/y+X79+aYcddsjtShNVZdLCVBackpGhZoQZuxm+tSgYZMcx7uJ+ZIwI2rSP9TDKOhiCOlWjRN4RC0qEzBHHlvoTAksdp8BZUQPsi1xIYxWQqkQ1JUGmiv1ktMDBWhrcF/pRwnrKKaes6+sXgwsEaoFAEIRWouihd//99+e0N/nwzS2208qmYrcOQIBBMXskR0sjjK16BCgBjDa3WjXxNkiZNSf8XmR9KLKEMLgWrovUT8bX56pISuVkyPUlJRQJYKgrCbi0UzK/3x+yx+ivssoqqW/fvnk/7j99yOaQMSJrgyKhfoTr7/+OE3iJRMj2kL4qwNPvGbmwpoa+fSYrxV/vFbKSKmr8jlWPItajqP5+iiMaD4EgCK28ZqRIflIPFfKjB1ts9YkAMmdG2qdPn2wYLJxkRuqhHqpP66+Z9Eiz+2oUBNhL/aS0qTKKBCi4xGXwl7/8JV8PJaTFGVjsipvAzFzlSFlBCkGZzRe1pwQ5UiJ8bzx+i9qjNogZsKS14lLcFQiBa21/Y0EguBW4JhAEAcaUBwQBAfCXu5DLgGvBb9xfsQyKVyEIRxxxRE4/FZisANZiiy0W91Hrb6PYs4ERCILQyotnhsKfKpDKQ6K1BWda2XzsVkMEzHwVOWKcVCZUzTC26hBoT5Aiw0ua505QEIpLgLuALO934/qIKzAbRwjEEPD9IwXqQVhB0oy9pHqKJ+AeENegYJU2KQjKTzuW7O+vQEilsAUpci84RrwCBUFb1AvkpagMiIZ+dttttxx4fOmllw5WEKgcxosgIJgIgqWzERAxDrEFAt0BgSAIrbzKZFORzRbAiQJJrQStE3Zj2B5//PEcsGZdA8WGYqsegfYQBMcKImTQyf3Ff28UpYCTAEZrWTD4FDmloaeZZpqsOvD5I3hcFFx5jLUARcZZsGKpbmmWj1jYD4ko9R7UnWD0uUUQAjEFNsREPASDL+BQ5gO1wkqVCMDJJ5+cY4sEU1obgzKBiMjIEAthcqDdskBW9ajGEYFAYyEQBKEV16vIpiKkd9999whQbAVmnbWLa2Wm56GubLIHf2zVI9BegsCnz6BvscUWudKkctBkf6tLPvroo9mwKzXt+lAEvJdNYNbObUAJIPcvvvjiuXQ0snfYYYfl9SqoAo5BQEp1yaeffjq3h1hQEBhxRp57oWxcDMgEEkB1UM2SQmCpbsRDv/rgitp2223zGLggBCXbuEPETkT2UvX3UxzRmAgEQWjFdfOwFP3Md8ofGfnQrQCtk3ZxrcwwzUIRhLasZNhJQ6+rbttDEJyI2fmNN96YFQG1CNQfoCZQ4AQjihlQrpwxls1w+OGH5/UvxAeIE1CXQJoiV4FYA/sz5N4XgsBgUwtsRTUS+8CFIK5BLIEASGoFo44gcHfMMcccWV2wvgWF4MQTT8xlqcWsIDDcDu4ddRaoDvqzeS+OAvmIWJa6ul1jMMMIgSAIrQCWT9XCNyKrDz744IhgbgVmnbVLIQhmhqLvgyC07Uq0hyBwG4gjMEOnFkgPJs8jCIITueu4fqw0SR0QDGnVSGtL+Nws/7bbbsv/pzDIcDBz33zzzbPCwGBTBmQ82E/sAhLgM0oAA64/qZWuv4BGCgM3BtIh2BAZMRYqgyBFv23qAcIhTqKUtnYOxggPqZn63G677TKJiC0Q6OoIBEFoxRUuhVNIk2YYYXRaAVon7RIEoTbAt4cgCA7kEhAcKP5AyiGDLJPAd9YzUfXQTN5y2tIMzdQFAQts5B4S56M+gWPsz7AzzOIUuAIoFBQISpHYA+MtGQ/+UhqWXXbZ/FsVEEmhQFwQB7ELVAxbqYvBJfLPf/4zxyNQF8Q0mBRQMhAI+0lzpHhYVCsKJdXmPotW6huBIAituD4fffRRnr0IlBJ5HfJiK0DrpF2CINQGeDiS+hljKYh89tVsSDWZn4FvulCU2bnYAb8j35VFrexbFsfyueOLEafilXaQDKRgSLUIyroOjtef452TNptbuKq5Ra0cwzVRyIA+K9utBo/YNxBoRASCIAzlqnmovPTSSzk48dRTT80SZmz1i0AQhNpdG0tWqy0gmt/MO4hx7bCNlgKBRkAgCMJQrpIZDT8lSVTgEukytvpFIAhC7a6NomCC/lQSJOdH9H7tsI2WAoFGQCAIwlCuEpkROXjxxRezHzNyoOv7tg6CULvr496XffDaa6+lHXfcMRcx4gYIolA7jKOlQKCeEQiCMJSrI0JaGhR51SItxS9azxe1O48tCELtrj4sRfqr/yEVUYEhgYUCD4Mk/A9nWCi8JKAxtkCgKyEQBGEIV9MDUiS2B6Q0Kznc8WCs79s/CEJtr4/gPbUCBCxKWZQqKACxpAHWtrfGbK1UbpS2GVsg0JUQCIIwFIJAXpU3rcSqSm8RqFXft38QhGFzfWQdKHjkr7ic2P6HgGeCjIpStCmwCQS6CgJBEIZCEFRok+alOt94443XVa57lz2PIAhd9tLGiQUCgUAHIxAEYQiAk1H//e9/51XiFFEJ9aCD7842dBcEoQ2gxSGBQCAQCDSDQBCEIdwWorgtGPPOO++kY489NuIPGuAnFAShAS5SDDEQCAQaAoEgCEO4THyuqidaHc5Sz6Eg1P89HQSh/q9RjDAQCAQaA4EgCC1cJ4bGojIqKCoSo1hMbPWPQBCE+r9GMcJAIBBoDASCIAyBIFgdjoKgSIw0x9jqH4EgCPV/jWKEgUAg0BgIBEEYAkGwDK0V3Q466KA03XTTNcYV7eaj7GyCoH/FtcpCRZWXw2I/0gRVIxxawS0BspU1NxznM8eGq6ub3+Rx+oFAByEQBKEFoD2MLe96++23p+OOOy6NM844HXRJopv2INAegvDJJ58kqlEpAiSvnWH+7rvvfjckSwjPPPPM6e23385LCNusduizr776Kp188slp+umnz8scV65I+OCDD6Ybb7wxbbnllmmmmWZq8TSNwfLDKheOPfbYeRXCvn375iWON9lkkzTRRBPlY31uDB9++GEmDciDlQeNqenyx9NOO22afPLJg1y05+aKYwOBboZAEIQhEITTTz89P4B79+4dGQwN8sNoK0FACm677ba8eiFS4DXFFFPks1Y9kCrACCMHE088cdprr71yhst7772XCwhZ7XDTTTfNRYTOPPPMTAy22WabNNpoo+X9e/bsma677rp0xhlnpDnnnDN/1nTTfq9evfLSxNb9YNQPPvjgbPAPOOCANNdcc+Vlx72fcsopMyGwwqh2nTcCoJ833ngjF+357LPP8uJiyiRvtdVWad111w2C0CD3cQwzEKgHBIIgtHAVyMEe0h70HtIh69bD7Tr0MbSVIGiZIbXEsZr6XEsLLbRQWnHFFdM333yT01zV2996663zPUH+RxxV17zvvvtyES0zf2TC92byDPioo46atthii7TCCivkehoXXnhhXjJc5b2m24gjjpjWWmutNPvss6dnn302B8nON998uVCX/++99975L0Vrgw02SEr7Ii6XX3554qaG4LUAACAASURBVA5zv55//vlp0KBBaeqpp86qg+wb3wu0XW+99eI+HvotFHsEAoHA/yMQBKGFW8Esbs8990xzzz13loSDIDTGb6atBMFx/fv3z8aYlG/2btZ+11135Rm62Tj1wGqevqMOUAOmmWaaTBAYb6TywAMPTNttt11acMEFM2CIBMIx+uijZ9Jx55135n0mm2yyPwCKVGhfcS5kQRtIxZVXXpmDZMXBDBw4MN199915LJYfp3JcffXV+TPvuTceeOCBrCBYR0Q//u6www5BEBrjFo5RBgJ1g0AQhBYuhVnYZpttlmd/ZmpBEOrmnh3iQNpKELgGbr311uxmMHs3A1944YXTt99+m1599dW0wAILZALw0UcfZbfCPvvsk84666ysElAOjj/++DybRxzmn3/+fLyN7L/ssstmg80dcP311+fPGPjKzbi5EJBRKoNYhY022ijHF3BzIRjUCITDvWj58aWWWiorDJdeemkew8Ybb5xeeOGFvJ8YiAsuuCAH2BonJSQUhMa4h2OUgUC9IBAEoYUrITDNA9VKjiTf2BoDgfYQBDN3L4SAj3+sscbKsQLuBUGqFu5aZpllMpGgGDC8jLqVDtdZZ50cPEh1cgyDzt1g1s9FRUW46aabsmGv3Bh7ZPTpp59Os846azrkkEOyekAFQDIoChQAWyVJffPNN9Mss8ySyYx1QigLghoRmkceeSTvTwVDFvzddddd0/rrrx9EtzFu4xhlIFAXCARBaOYyMDLKK6t/QEZWSTG2xkCgrQTB2QlUvP/++/MM/i9/+Ut65ZVXchaB5Y0ZfLP5JZZYIt18882DgxTN4hlr2QtUBkGOVv9EDAS5yozYY489svJAYTC+pgRBYKF9xSUgEwiCDBr33fvvv5+JiH24IGziEPz/xBNPzEGI3BDG7T0SQ+Hwlxoi6wG5QSaoCqGENcZ9HKMMBOoBgU4jCL+mX//wsKwHQIzBQ/zOO+5MV1xxRTrm2GPSBBNMUJOheTj7F9uwQ6A9BMGx4gkuuuiitOaaa+b74IMPPsixCWIQKAQkfSqD5b+RAUb9iy++yH8pB1b/POmkk7JBF89AHZDdIONBW03JATIggPCOO+7I8QL77bdfVix23nnnHNjo+0suuSQddthh+T40Jqm3CATyyl0hCFFsg5iJG264Ib388suZ1CA0YiS4MxAeKkcQhGF370XLgUBXQ6BDCcIv6Zf02Tefp/e/fj99+u3nacAPA+oSzx49Unr00cfSp59+kpZbbvk/+IvbMmgP5p6jjZfGH238NPW4U6YxR/5jFHtb2o1jfo9AewlCURDM+mUbCFgUpGg2bibOl48kqHuAACAH4gvI+wy3Gf3++++f4xVkPkhzJO+b9ZP6yybmAXkoLoZTTjklzTHHHFmZeP7559MRRxyR9t133xx/YCVRgY3jjz9+JggCJ6kYCAoyQfF47LHHckDtGmuskbMotGHcshiQFRkYXBZBEOIXEwgEAq1FoMMIwn9/+W+698370umPnZ2e+eC59N1Pvy8+09oBd9R+RQqu5QNVW2OPPHb689QLpb0W3S3NPMFM8cCu8QVtK0FwnAA/s3VGWSyAGIRzzjknPfzww5kYMP4XX3xxDjo062egZRestNJKeT8xBkpzixmgCJD511577VyDoGlQ4uuvv55VBfUW7O8lhVKaI4MvBkH8C8LSp0+fTE6Ki0HaJVLCLSHDwfgWWWSRHMBI6RA4Kf7hpZdeypkQSIoYCKmRpchSjWGP5gKBQKALItAhBMHD97XP+6Utr9kuvf75G+nXX37vh+2CuA7xlMzwFpp8gXTaav9Ik441SXc7/WF6vu0hCGbd3AviB1RBROgYcUWQBCcyvP/5z39yQCFSICNh3nnnzdkOqiQiFgiBWgrSDtVGWHXVVXPAY1OiKTZBcCFVwXcCFJdbbrkclEitENPAzVHaEusgDsL5IRf9+vXLGRNIgdgJZEYmA3WhVILUbiG62l1llVVq5i4bphcxGg8EAoG6QKBDCMIPPw9KJz90SjrlkdPTTz//VBcn3tmDGHH4EdMpq5yUVptl5TT8cMN39nC6TP9tJQgAKGWVzc7N+Mu6CuIAyuyd8eU+QPLI+0iDfbkM7G8//7cP4+19cyqUffVXDHgprmQcjvW5fv1fe/5f2vHeq+m6DMbm85a2lsbSZS5+nEggEAjUFIEOIQgDBw1MW/bdNj3wzsODZzc1PYsGbMzDfo9Fdk17LrprGmmEkRrwDOpzyO0hCPV5RjGqQCAQCAQ6B4EOIQiff/dFWuysZdJn337WOWdZp72uPfsa6YRex6ZRRxy1TkfYeMMKgtB41yxGHAgEAvWJQAcRhM/Tgqcvlr7+YWB9otBJo1pj9tXSSb16p9FGHK2TRtD1ug2C0PWuaZxRIBAIdA4CHUYQFjh98TTwh6875yzrtNc1Zl81ndTruCAINbw+lQTBokZWWlR/QKXB5goV1bDrhmtKTIIqobGUecNduhhwINAhCARB6BCYm+8kCELtwS8EQcEiGQVXXXVVXo0xAvT+iLUyzEpDzzTTTLW/ENFiIBAINDwCQRA68RIGQag9+AiCVRMtYKS6oToFyiOrOOh9Leta1H70Hd+i9MeSodHxvUePgUAgUM8IBEHoxKsTBKH24BeCoJ6BGgSqGEpbjC0QCAQCgUCgOgQakiD8bxbYw8IJ/z8rtLrDb+sotLTllRAUj2lhHQirJPxWXCblfco2nNrLqUf65ddfqkN3KHsHQagpnLmxQhCsl6Bc8cwzz1z7TqLFQCAQCAS6AQINRRBGGG74tMIMy6clp1k8TTH2FKnn6D3TFc9eleabfJ5cmfCkh05Jr37WL/30y0/p1U9fSwO+H5B+/O9v9e9//fWXNNtEs6Xz1j47ffbdp2nbvtunD775OH+HFIw8/MhppglnSH1WPTF9PPCTtP31u6SlplkijTT8SGnpaZdMs008a9qi77bprc/fqplMHQSh9r+wQhCsTXDyySfnyoSxBQKBQCAQCFSPQEMRBEb8b8v+Na028ypp3FHHSa9/8Ub68OuPMkEwux/ww9dp5OFHSp98+2na/aZ90hgjjZF2Wni7NOqIo2Q9YMyRxkhzTDJ7+vmXn9NzHz6fvv/5h7y2ojoNpz96Vq5H8I9VTsiz0P1vPSj1Xuno9N6A99I3g75J80w2d9r22h3TW1+8nb4e9HX69sf2ryURBKH6G3ZoR5QgxWeeeSadcMIJNVloa2h9xveBQCAQCHRFBBqKIAzXY7jUc9Tx0jpzrpn2XmzPdPkzV6YFppg/9Rxt3PRo/yfSyCOMnBad6s/pna/eTUfdfWwac5Qx0/G9jkmff/d5eu3TfunXHmgCSvCb+2D4HiOkWSaaKf3835/TNS9cn/481YJp2vGmTeOP3jO9//UHaYLRf1s9r0eP4dJIw4+YBiAGg75Nve8/IV313DXtvh+CILQbwj80EHUQao9ptBgIBALdE4GGIgijjDhKOnnl49MK0y+X/P+bH7/JxZdGHF6p4l+TWIHhewyfv3vonUfSpU9fntabY530yqevpTtfv+sP8QkjjTByWnmmFdM4o46T+n/VP608c6809shjpbe/fCf1+/yNtNZsq6f+A95P4406TlYjXvn01fTl91+l85+8KN362u2ZarRnC4LQHvSaPzYIQu0xjRYDgUCgeyLQUASB8bdU8p6L7JYWmHK+HH/w9aCBadnplknDuX49Uhqux/BpwtEnTE++/1R64aMX04ZzrZ/ELtgoEKOMOGo27N//9MNgJeGbH79Nr332Wppw9AnSmCOPmd79qn/676+/pMnGmiztfMPuadsFt0wLTrFAWu2iNXOMwwjDj5iJSHu3IAjtRfCPxwdBqD2m0WLrEbCAl3tQjQlFusQ3+X9leu2gQYPymjSya8rnFu7y8plFvio3C3bZz4Je2rQCqNga75tu+rdvWclT347Xp2W/K8cxpIW98uO0R4/BY9FnaUO/ztF7bVtltKX04bKfhcWantfQUIWR4x1X2b7PymJozWEwtHbj+9Yj0FAEwWlNP/506aJ1zk3TjPen9PQHz6TH+z+ZZpxg+v+/gXpkV8DME86UnvnguXTonUekaXv+KS021Z/TgEED04ufvJwOXebAzCQOv/uowWtD/PTLz2nsUcZK808+X1p1lpXTBwM+SEfcc0zac9Hd8j5zTzZXmnSMSdJt/e7M7oqbXrklPd7/idaj3MKeQRDaDeEfGgiCUHtMo8UhI6BKp6DYSSaZJC/z/fnnn6eddtop/eMf/8jGs6TaFiN38803pzfeeCNtscUW2dC7Z++///50xx13pG233TYvD25j/BjJG264IRODddZZJ1144YXpkUceSX/961/Tn/70p8GGUzEwbWi71LZQOXTJJZfM7cvqWXnllfN300wzTa4LYmnwV199NfdRmf1ViMHcc8+d64jY7rzzzrwM+f7775+XMXdM375907333puOPPLIwdU4mxrsV155JV1yySVp3XXXzVU7Kw29Nl588cW8THpZohzpKGOBK2Ky4IILprnmmiv1798/WZJ9wIAB6b333svtWeZcpdRCJOaZZ558ftWSkbjHm0egoQiCJZJ3W2TntPsiO+cZ/IfffJQ+//bzbPBlIgpi5GroOfr4mTjsdP1uaZ7J5sqZCQ+9/Ug67v4T01UbXZImGmPi9OyHzybLUMtuuO+tB9O5T1yQpus5Tbpw7XPSBwM/TCc+2Ccdtuzf0ugjjZ7GG3XcrDx8PPCjNPDHb1Ofh05N1754Q7vvqSAI7YYwCELtIYwWq0SAsTr00EOzMUUOvvjii7TppptmI26bZZZZsmFk+BlpRpxh3myzzdL111+f3n///fTpp5+mjz/+OBt9pGL88cdPu+22Wy4Pfsghh2QjOO+886Z+/fqlTz75JBvMkqGjEmavXr2SwNyzzz47TTfddHkpcEZ32mmnTQ899FCe7Wv3s88+SzvuuGMe6zHHHJMeffTR3JblxMuGjDz99NNpjTXWSNtss03u7/bbb89kYPvtt08PPPBAJjgffvhh/m766afPKgmCtN1226WJJ544N8Vov/vuu+nwww/PYz3ssMOyQS8bBQP5ufbaa7NBRy6099VXXw0+B+ex9NJLp1VWWSX961//yuc32WST5T4WWGCBfG7vvPNO/uzll19OO+ywQ1pppZWaVVeqvKyxO8v665AKB9QIIrPuWqzFMMoII6djVjwy/XnKhdKEY0yQ+j5/XfLZ7BPPlkYZYZQ09qhjp3e+fCdxGehzn1sOSJvPu2leUvm6l25MfR46LV2+/kVp3NHGS/e8cV/67qff5EBqQN8XrsvqxAVrn50+GvhR2vzqbdIkY06cxhp17LTbn3fKfexzy/45PuHDgR+nAT8MaDc6QRDaDWEQhNpDGC1WiUBTgsAIM7oXXHBBNmKMHAPKqDHSl19+eTaCa665Znr44YfTVFNNlckDA0k6Z1TfeuutdOyxx+aZ+y233JLMjBnx5557LhMKBn7sscfOI0UIKAVXXnll/l579jUz57LgdlBFdOSRR05TTz11Wm+99fL3Rx99dHrwwQdzrZDKaprIxEsvvZRLlW+11VbpzDPPzOrB119/nfd1Tv/5z38yydEvIqJtM/flllsu9+k8KB2UDc9Yyoe2ECRbmeEjVEiB8Th/qgQVxtiQJMQKZs71uuuuS1dffXUmON57wYjC8Je//CUTqXHHHTettdZamUyF+6HKG7mZ3RuKIIww3AhpuemXSSvNuELqNdMK6eF3Hs1GfTj/hhsuXfjUP9PsE8+apu85fRph+OHT324/LO27xF5pzklmTx9/80m66rm+ab05106//tojHXjbwemTbyw//Wv68ZefcjrjRGNMmC5Y+5xMEA67++gcuzDWyGOmHRbaPs0y4Uz5GEGL0inf/OKtnC7Zni0IQnvQa/7YcDHUHtNoccgIVBIE6gEjbevZs2c2qGbaFAUEgQLwz3/+MysCW265Zfryyy/z9xNNNFFaZpllsptBLIIZN4n/tNNOy8Zz9dVXz884RlL7ZvaTTjpp7ochZCyvuOKKbLSnmGKKbFT9FiaYYII0wwwzZCPPwHNrLLXUUtklwAi/8MILecZdWW2UtH/jjTemFVZYIfejTZVJzdQpBAjJUUcdlV0NW2+9dTr99NMHqwfaoTZQGOBCAdljjz3Sm2++mbH49ttvE7cDo27MFBSEoCgOyA/SMOOMM2ZihSAsuuii2UVBQXAelAqEZNlll814UTWoKMb41FNP5X19FwSh/b/chiIITleMwWbzbJwOWGrfNOCHgemrH75M3//4fZptolnTLa/elhaeasHBmYxvfv5WmmvSOdMT7z2ZJh978jT1uFPmG+6/v/w3G/lSGfH7n75Ph911ZHr98zdyfMN7X7+fhhtuhDTHRLPlzAiuDS6NH37+If/o7n7j3rTXLfu3W0UIgtD+G7hpC0EQao9ptDh0gvD3v/89LbLIIlnCN/vmKjCrNXsn5TPSBx10UCYNZvp87wjCNddckw3qzjvvnGfjZsg33XRTltTnmGOOfCy1oRg7PnnSPONZPkMgdtlll2xUzz///ExEnnzyyTwzN5M2BhI84sA9IM6B26N3795ZnWjOkOoDqTHrR3q4Sxh8/Tz77LPZNYCgICKMupojs846a44ZOOmkk/K+CAR3hfP2f5tzRSioAFwHDLyx+t16ISOOpZAIqrRRY1ZcccWMC4K07777ZnKBSHCRIEEUEGPWPwIEg1h3pf2/3IYjCC766rOsmnZceLusCHAPTDrWJGnNWdfI5OHbH79N1790U3r5k1fSeKONl9MYL3vmyjTSCCOlhadcMPUcbbzfsh3S/0fG/pqyq+Ffr9yaPzt6xcPSJ998mu5764Ece/Ab2/jfpoLCu1++m+596/406OdB7boCQRDaBV+zBwdBqD2m0eKQESCjmwW798ycvWekSvaCGT/J3cyWn9xCYgiCoEOGnnuBcWWozbi5HRg7M/uPPvooG+iScdA0mp+qQA1gILXLuPpMf4gBhYJx5vsvWRBiC6gUXBkMatkcV4IF82RspJEy6XAcMqE97xlr5INxRwAEYYpZYLS1TV1AiJyLsRdipE0E6oADDsjug3322WdwJkQZw2WXXZaxFPhIVSkKCdfBrbfemhUV58JlIu7i9ddfz+cKF0GMYjmQKopCEIT2/3IbjiA4ZTUJZB189cOATAjcCD4bvsdwSUaC+gh53YXUIxdPGvTfQb+pBRXLNFhroZRMKms0jDjciLlIEtfBp99+9rv1GJqyhFrcfEEQ2n8Dh4JQewyjxeoQ4LM/77zzsp+ekWUYzX4ZX4YbcSCLM5Rm8IygmbcgRIGF99xzT+6wpCZqY/nll08bbbRRdkWYkQtgbC5cjFEm4VMsyPhcGFwJzf0ujEWcwIQTTpilffsz2AxxiTtgWBljm/4EICIDiI3xIQOOJ+dTEvj7uSS0Z+lwxpvrQrCgOAXHFoKgD9iIMxD7IF6BglFJSozH+GVZICg24+bqYPzFb2y44Ya5HwGY3DWzzTZbjtEQj8DFUQhILZ7R1d0JXW/vhiQIXeUyBEGo/ZUMBaH2mEaLQ0aA0Tv11FOzsWf0yOBcBGR4SgKiwJieeOKJOZ6Af59x3n333fOsl2/fTFja4WqrrZale6oCw2e/gw8+OM/IGcFKo+c4x3BvkOHN5vX92muvNTt7ZjwZV8a3pFYiNrILnIPxiA1AZmxm6QjAE088kYkHVwDS4hjGnlpAseAm4SIRJyHVkpuEkfZXfEUhCGIPuFfEFHALGI8shMp6DGIIkBFtlSwNCsZCCy2UyRUVQaAjHLhJBEJSXLhPjBFW8803X8Qf1OhHGwShRkC2pZkgCG1BbcjHBEGoPabRYssIuN/ECJC+ZQ0wqOIA+O/Nshl8xpchN7Nm/BlOxpIfvqgGjK/9qQqCAKkIZvLcAH/729/S4osvnslGJUFgSB0jeh9B4DZADszAy+y7jNwsnRTPqJp9CxYk8dvfOKgCiAYiUrIHuEgEADLU1BHpmXvttVc21EjEVVddlQmOdpdYYom8rxgL42DUKR9iCvbbb7/cPqXknHPOye4DAZjlXIzNePw999xzs4uhpDOW8TtX54lw6JtyIhvD2NSbQJYQA+ciU0MQYygI7f/lBkFoP4ZtbiEIQpuha/HAIAi1xzRabBkB6oAUPsbSTFg8gOA5fn9/vWf4yPDzzz9/nj2bRSMBjD4DbzbuxcfP4FEZHCcwkPE98MADsyuAW6Jy07d9GVwEQR+MPGMrOLHSQJLnzbTFB3AjGINxC6RETpAYfXBBMPKO1TejK3aC0RYkiCCoW4AkCHyUxWDc2pX+uPfee2cCAguuFH0gOlwu1AaZDBQLfZRN4aM+ffoMrq0AO4pM5T76gJVzQLS0x6Ug9gHpmnPOObPbQvwHlwslJ7IY2v/LDYLQfgzb3EIQhDZDFwSh9tBFi21AoOT7cxEUNaClmatZb8kkYMD50MnilQGIJc6AAiCLgbFnzM2KGfbKTQAj+V+woxgERlTtBXELJQWy7O878QBm+dpCCtRaINcz0NIdzc4RFa4K43AeMjO4NrhIHMOtQAmgcCA41AabIkqMNhJUDDMlQx0HKoj2EAXH6L+y0qE+xSII8HSsbA4Gv2k1RBkL4ho22WSTHAAqSBIJo6wgE8aPJCy22GK5FkQoCG24oZsc0oEEYbE08IeB7R9xF2phjdlXSyf16p1GG/G3dJ7Y2o9AKAjtxzBaqB8EqA8MqEC9ymqHRohY+I6cXsoyM/b2K/77ciaIjO/EFRT3QyEBrTlbbgNt6MvG+Ha0AS5jKGtYwKYzxtEavLrKPh1CEL74/su01NnLpw8HftRVcKvJeaw35zqp9wpHplFHHLUm7UUjv0VeC6Iy4zn++OMHP9ACm9ogwMjA2GzYw5nMXaL2K6vxNRdxz8CQwUnlpQiOUdmXsXM8g0cmZuDsU2T0ytlkZduOa64vbXW0AasNwtFKIFA/CHQIQVCUaOOrtkiPv/dE+vWXilzD+sGhw0citXKnhbdP+y2xV07FjK02CARBqA2OzbUCW4FnDDi/OKNN9rUQ0Oabb55lbpuZnuh0+9mHr5qhF0hGFhaRzhdtpitS3+cW4ZFfLxOA71paGwne/+0jul4bJGZBgTZ+en5zufaVG3KhKmEpzjPsEImWA4GujUCHEASLIp3+6JnphAf/kX76+aeujWgrz051xjNWPyWtNNMKNVk6upXddvndgiAMm0vMOFMAFMzhW7Y4kVm6iH0rGUqR4/dGCMz85cE7Bklg3KWv8YMX/7S2+OMRDrntiMFxxx2X0/T4uKWriVaXGuhYQXDy9QXkIQn6EUCHIPBxF+kbOeEXVyxHwF17tuaUifa0F8d2LgKhKFWPf4cQBD+0/gP6p82u2Tq99PEr3VpFyEWZhu+Rlpt2mXTyyselnqP9L5q3+ssXRzRFIAhC7e8JxlwEu6I0gsL4fqWtCQ4TRS4FrbgMzOoZc+4d9fClx6nfL19dCWKlewXEaa/k94u8pyAILFO2l8vC/7WJjIjAF9gmZZD6gCSoPKh9REBmgAA5+3uJnDeGthIE95CgQymAAvsECsbWuAi4nsir2gqR2VDddewQgmBIHipPvP9UOufJ89NLn76cvvpuQLIGQmV1w+qG3oF79/hflbO2jrfHcD1+Wzp6tHHTPJPMnXb9845p6nEi0rbWVzEIQq0R/S0YjnEX18FFwIBLj+MaoB4okqPwzRlnnJHz4RUJkqLHRSAP3kxf3r/ZvejzokZIh7MugPoBiIGofO1THOTrV26uq8+4MaTJzT777LnaoP+r6Y+oCF7Tf8m1bwtB4L5AhKwZYKwi7/2NrbERoFapMVEZJ9PYZ9Qxo+8wguB0/Mh//O+PeTGk9wd8mAYOktVQ3zEJ//3l1/TAffelAQO+TiutvFIaYYTh23RlevQYLq/tMPnYk6XJxpo0AqjahOLQDwqCMHSM2rJHqe3PJSDQUFldKoF1BpABBEF+OleDdDz58NQERlsevTQ2W5F5kQRGXj19szrkwWqEjLM0N5UEy1Yq6THW1AHGW5AkIsIdQUlAVKgayEVbCYIASQV6jFUqnQWDLPrTtOhQW/CLYzoXgch2aBv+HUoQfjcjqHNikMf6a8p+V3nIjzz6SDrqyKPSWGOP1Tak87JPv1/4qc0NxYEtIhAEYdjcHOR2s3Uz/eJiYKC5DuTrM9jK4CIN5H7FagQdykuXS696oMWHpNm5RioLijFQZc+sTg68Y7gTlAIuRXJI/OIMuCPk2DP+cuupD1wO99133+BVAbkfkBNLAnNDVKMgGBNXiUJAKhciGk3z8IcNstFqIFC/CHQaQahfSH4/MvKqh5mZiyVNS53yRhl/dxtnEITaX/FiPJXmXXvttXP2gcV5GHSLCFl8x+9EQR0KAnXAd8oNW3fAb8ZMX/Eb5EF7lAcKwv777599/JQJRX+oBfbbaaedcsojUoJAHHHEEVkhsG8pLUw5ECwpy8Gsn+rAsFsPgJEvWRWtQcSYKBhIjuWIm9YRaE0bsU8g0NUQCIIwlCtqtuRh5kGm/KcSqbHVLwJBEGp/bQpB4EpgyGUMWIBHKqLMAgvzyFDwvVm8zAUGnsGmDDDajD9iwT3B+CIR9t1yyy3TJZdckomEeARuCSoBad9SxfajMiATZGJtIwiIBIKAmCi/S0ngzkBMCllBTFobue4cTQBUIZSpEb7q2t9H0WLjIRAEYSjXLGdg9O+fZ0PqhZNTY6tfBIIg1P7aFIIgroBbgU/+X//6V1p//fVzeVt1EBhlZXstVkT+32WXXbKx51IQICYbQb0CKYtqIIgq9x21wGI73AcW35E9YCYv7REJEIDIVaEN+yMDCASiscIKK2TCTt2jXsiEoGBIg0Ritthii1YXyjIRoFIU1SKi3Wt/H0WLjYdAEIRW7C7n/gAAIABJREFUXDN+UKlaomDVEg/fZCtA66RdgiDUHniYymJgfBFkCgBDailihh8xYFDJ/BYNoh5QE/xlwKU0cg1IkRSTYCU/6oLfkRRF2RFm/4iGzAh1DGQjIBQIATLAXcDgW1FQQKO4BjEDlAPBhMgFt0JZLElKGwLTWiUgCELt75tosfERCILQimso9YmMahEQPtiIam4FaJ20SxCEYQM8peCaa67JCgEjzEhLSZRZwECT8mUSMPpUAbN8QYRSHQX62gQ4ilfgGlDHwGZ/6gNiYEVEBMSqgIIUHYecWzlQaqWFgnwm7dCLGiF4Uj/e33DDDdmlQcFYddVV/7Bg0ZCQCYIwbO6baLWxEQiC0Irrx7/KPynAynrjkRfdCtA6aZcgCMMG+LJeAqWg+PUZa/8vcjwja/OZ3wyZv3IGjwgw9Ah204WHtI90aKupvF/WW2iqBujPcWV/+5UFfCrH2RpEgiC0BqXYp7shEAShFVfcg1B+tgpwoqb5QmOrTwSCINTndan3UQ1rguC+LMSqlHBubQAl7Foq+9xcG/Yt+7fGHVpJ7Fo6rrTZdNGscl7VnEu93wsxvv8hEAShFXeDHwH/qsAsJVzJqrHVJwJBEOrzutT7qNpDEGRaiIcoi0gVFaMYXjEU1BEFoDw7xFVwhXCNOFa1yUoCwNgqLS0wsxhe601wway55prZLaNYFJenug+VxlmfL774Ys420b5y2JVtU24ooLJBZGeJBbnoooty1oiCVupHyC5Rs6KsiGmCZNEsihAXq/70I9VVmqv4LGPyeWsISb3fCzG+IAhV3QN+YI8//njOj6YgVJNfXVVHsXO7EQiCUB2ELc1Mq2ul8feGw+GHH54NttoLrc1icJxgyksvvTT169cvG1HHSusUZ6Hok/dl7QoVJwVWXnDBBdmwCvYskw4GmZtEQOfGG2+cNtxwwxxz4XNBooI+uTq9P/bYY/OCWEiCMfgMCRHw6TtkBXkQ/GlzXoy6dFErbwowlRIq8FSdFytuWgFTSqkCU461zTjjjLlU9mmnnZbPDUERi2LcCIZ+BIwiBuJNxKiUPhv/rogzCAWhlfeAH5T8az9Sed0hqbUSuA7eLQhC6wBniGQVWP/ADNcDvzvf085dtUcBmNUQBIb32muvzWmZZfZcZucMJkJQZtzapiKoFim4UjaHWI1TTjklnXfeeZkYiM9AAjxjZIeY3cv0YJwRipNPPjnvgwR4L0uEIiGwEyk599xzMxlYeOGFs4Ig2FNwqBUz/UUOfE7BkJWlcqRgU/UsVMN0LsZcYkRkbblXBIAy/JQFZKiknZa7TXvGYuGtcMG27jfYCHsFQWjlVfIQRQ5IbHLBu/PDtJWQdcpuQRCGDjuj5IHv5eHfNJhw6C10vT38nhVJMluuhiCYlcvw4GJQErooCtIxZXeUwmpk/emnnz699957mYjI2iDvy+igJkgLPeuss9IGG2yQqzkWmb9UhDS7FyBdSRAUljKDVzfC8SYxNgbeMtlUBf9Xx2W88cbLhGLeeefNxh9BKQRB6Wqkxvh9T/FAGJCB0UcfPSsMXAwIAmWDmkHZQEK4QigK9kOAlltuuVAQutDPIwhCKy+mHwRJzgPEQi7ha2slcB28WxCEIQPuPubL5j9Wa4A8TF4OWTil4447LhOmaggCtKkv1n8wgzeTpwTce++9uXiTZasZbmqNxazEICAHfP1qRlAZKAjKWFsoSmVJdSMoCOo4IBMIwzrrrJOXtq4kCGo/MO6KTm222Wa5xgRFiMuDEedykPLpPePNNVqMOMKiTwWt1J8wPiRCn48++mi6++67c1opN4d29OuZp0+EBCHynaJX4h0QFUt5Iw2tdc908KMhumsDAkEQWgmaB4cSrDbMW8pjbPWHQBCEIV8TMjO/s9mhh32k7P6GV3uCFKVuKsPOQJv5f//991n2t0aEGIS33norG2mGFBGjFCgtbclsRvviiy/OxpWiQ6U0W0cQGGDSPcLCVSAOStVJLgZxC4yzOACGXv0ISgTyQTUopaqpGPanGHhxP2y00Ua5GJV+tGGdDORA1UpFsChMSIrvFJziPtE2pcSYVKrkekBwqBRcJueff/5gt0YQhPp7LrZ1REEQWokcw5NXdXzkkRyL4AcVW/0hEASh5WvCCCo6pIgRo1PNaof1d6VrO6L2EgQqAEOKeKkuiQAIIJxhhhlyCWgBjBQKGQaMu1k5o29Gz/ByISAVSJuCU4gG1YDiY/ZOneCeUO6dwefrN0nhwqBs+j+1gYLAaMt6UEhKCWsKQ3GJUiyUqKYGKP6GUDh3EyDkxbhKsCTSse+++2blg6LgXLg5KBpvv/12dqd4aUsbVAznHO7X2t6bndlaEIQq0EcORPMKECLLxlZ/CARBaPmaMAL8xXzKjBX5Obb2KwiMuGcD4+/+GzBgQHYxlJLSPjNjpxiIBzBzpypY7Mrnr7zySp6xIxFm5qpA+pxBZny5LEj63AHIghgCzyDHUxr4/xl2adjF4LvGDD7Jn8Gncjz00EP5vTU1zPK5MyxopS/fyVDgPhBjhdSITXGfiM2gICAzW2+9dT7XUgYbUeCWQAqQEaQzCELX+VUFQajiWvqRYu4HHnhglg/jh1AFeB20axCEloFmyESgm1l68DMAsbWfIAjuk23A+Nu4GNQ2EIRIafScYKSlAAoCpBBQcWQQ2Mc14V4w6fBSj0BMA7cDdwFiZxGrgw8+OD97tCVbgWEWE6V9/VARrICJbMhakLFQ6hZwLQl4RFq4MRAKQYviJLhBxKTsuuuu2Y0q+BFhQHTEPSAkhZgYE7Jho6hyN1BEEBnKBtIZLoau86sKglDFtcSkEQRpQlaYC4JQBXgdtGsQhCAIbbnV2upiQLrUNUC6GHKbjCfxArPMMkueods8K0pmgKBFBKBXr16ZLDCyjDaicdttt+UUQmtQeM5QfGQYaJvrQoyAtqgK4kcYZS9xBWIHGHZxC9QArgQpjGIEtI20bL/99jnWQByE4ESpjdrh5jD7R0QEVpaltgUqIi0IhwBMLgqpkPAS2GgcSI6tuCDC/dqWO7A+jwmCUMV18WOwJKwfEJYdmQxVgNdBuwZBCILQllutrQTBTFxVQ+6F8jwovnmGvLK8stk1+Z6xZmS5HMSEmMWrjyCIUMCiQEJKgzgEqmVZ7Kql89KvgEIxEGIVqAYCCBGGSy65JBMGs3pqg9oKZfZvHEOb5DD+SIlxFteHMTW3cUEgERHA3ZY7sD6PCYJQxXXxECkpPSoqhpRWBXgdtGsQhCAIbbnV3DeC8aTr+VvNb7sQgqH1W7nIFWJh5l/68V1lO0Mz3C311XRthKZtVhKW1lTRrNy/EJ4hHdfWcQ8Nu/i+cxAIglAF7n4YFm168skncx5zVAyrArwO2jUIQhCEttxq7htxAX7bMgWiLkRbUIxjuhoCQRCqvKKik5EECgJfYWz1hUAQhCAIbbkj3TeKDqkzIFOJtB6z4bYgGcd0JQSCIFR5NaX1yB+WHywiOLb6QiAIQhCEtt6RgvnUOCH9C+ZDEigJEWvUVkTjuEZHIAhClVdQ6o/0JBHGAn5illElgMN49yAIQRDaeouJMZJRYB0D95FAwRKk19Y247iUgy0js6Ex74QgCFVeNznAHiCCixAFOcmx1Q8CQRCCILTnbkQSVCyUbmg9A+mGspdiaxsCfo9qKciyiK3xEAiCUOU18wCRm6ywiPrjUWymSgCH8e5BEIIg1OIWk1qo9oBXa6L9a9FnV22Dm6aarJCuikMjnlcQhDZcNaVGrdmumpnc39jqB4EgCEEQ6udujJEEAo2NQBCENlw/hUeUPOViUH88tvpBIAhCEIT6uRtjJIFAYyMQBKEN108p1T333DMtscQSucRpBCq2AcRhdEgQhCAIw+jWimYDgW6HQBCENlxyfknL5dosgBL+tTaAOIwOCYIQBGEY3VrRbCDQ7RAIgtCGS84IWcnMuujWgY9lc9sA4jA6JAhCEIRhdGtFs4FAt0MgCEIbLjkjZL10MQiWeZ100knb0EocMiwQCIIQBGFY3FfRZiDQHREIgtDGq/7xxx+nTTbZJK+fbuW02OoDgSAIQRDq406MUQQCjY9AEIQ2XkOBivvtt18ut7z11ltHoGIbcaz1YUEQgiDU+p6qtj21UgYNGvS71Ror2xDDpM7CiCOOOLiMc6m7UPmZY7TlO3FOJdbJPW5JaJuy0C0FSTvO8dqsRSC1tqxCWcaofS+1YJyvonFDKxxn3MbfdNxlFcqCUzlH47ZvbJ2DQBCENuLuR37hhRemhx56KK8CF4GKbQSyxocFQQiCUONbaojNud++//77wdUWGbR33303XXrppWnVVVdNs8466+BCSwydFWC5J8UvbbzxxmniiSfOxZgefvjhdPfdd6f1118/TT/99LlPhvidd97JRdlWWGGFNM0006TPP/88jTHGGPnZ4/sNN9ww96+UsfelqJM2H3jggVw6esstt/xdvZa2kAXtvvLKK+mWW25Ja6+9di5Bbbz33HNP2nvvvfMS2b169UqLL754HsNnn32WTKL8f/TRR08TTTRRJhditozTmMpquPZ7880303TTTZf3tX3zzTd50axJJpkk4xTrYXTkXf2/voIgtBF3Nz5ycPzxx6fTTz894hDaiGOtDwuCEASh1vfUkNpjiEtV1WKcGcKvv/46G/LKSqvWdqA6vvjiizl2Sar0U089lcmBhaIQi6mmmir17NkzrxS77bbbZiPv+SKles4558zVW9dbb728LLX+Zpxxxvwc2meffbIBf+6557Ja4LvXXnst9e/fP80333yDCQIDvMEGG2RiUs2mvcceeyyvdnnQQQfl0sk33nhjuvrqq/NnO++8czbkK664YlYTTj311EwgYKF/q98aJ5csokR1RaCM9YUXXkiHH354Jgi77bZbJjsIwsEHH5yJyK677jpYQQmiUM1Va/++QRDagaE67TvssEPaY4890qKLLtqOluLQWiEQBCEIQq3upda2gwwoniYuicFjlBlOxnKmmWbKzTDMDOAHH3yQZ//9+vVLyyyzTJpjjjnSFVdckVeNXGqppTJ5YNjXXXfdtOSSS+Z1X6gIk002WZ6hUwSQB6QCOWGoEZGVVlopHXfccenxxx/PRKKQhCLde//VV1/l/u2HWPisqAmV5aTLsZXnb7xnnHFGevbZZ7NKYHvmmWfyeSEIjLg1K4xts802S3fccUdWCBynL8QH0RG3ZdzIhTGvssoqefyIEgwdgzxxZ1BLuCxUq/WXUrHAAgvUxF3S2mvb3fcLgtCOO4D/Dcv3g/GjaIt0147u49BmEAiCEASho38Y/OqXXXZZuuSSS9Joo42Wuy8Gl+uRCwBRUDPFcvHnnXdeNoZUAbPoM888M8vuniHaKCvGMujHHntsNoqzzTZbmmeeebJE/+WXX2bS4Hljho14bL755pk0fPfdd/l51NxMm8G1z3LLLZfuvffeTBhI/dK0X3755dS3b9+0xhpr5DYZeDP7cccdN3/mHEj+3CPa5zqhKHz44YepT58+aZdddkmTTz55Dtg2XgQJ6dEGEqF9hp57wrhvv/32jAXFgBuB6kBhcW6UFP0hUhNOOGHu3/nMMMMMeTzxnO24OzwIQjuwxnLPPvvs/GMluxX/WTuajEPbiUAQhCAI7byFqj4cQWDY77rrrrTNNtvkGXHZGDMrQ1IVjjrqqDT22GPnWb5Z8jrrrJONMn+92TdyYabsHma0l1122WyoX3/99TwzP+CAA/6PvfuMkqwq9wZ+PtxXr3IvJpKKZEQySpIhCghIZkay5DDAkEEkCZJBMgKSYciMZCQz5CEqOUqSaAQTuLx33Q/v+j3ePbcou6erqququ6ufs1av7q46Z5+9n73P+f+fuONHjIL/nQdkmfEBNDLh3HJ4P9HWtVkLqsrEuwawM/0Dde8xbgsuAG4NJAbxcCAnxvX4449XJ598ctyLG0QcBYuGdrgYbOuMPCAK9qmxKyYlaty4cXEtGXhX6vcCCywQhAeZIJ/bbrutmjBhQozZwSpz2GGHBVnRNqKFJNSPpenJyguakkAShKbE9fGTLXQ+P/4zPrdm/XqDuHVe2o8EkiAkQej2w1EIwnXXXRduA5pzOYDak08+GQB95JFHxseAVRAjLZzVABgeeuihAcJA1hoGiNoBqKwGa6+9djVmzJhwafLfv/zyy2F1AMb33XdfdeCBB0ZmA6sAbRzBoOEjIACdid+hHwIG9Wv8+PEB/qwYtmTmEqHh33TTTdG//fbbL/pYrBH6zc0wxxxzhCvAdtgzzDBDEAQuBnEUXCHqw2hD/1hKuEuQDf1CHPw21k996lNhPdC+tmeccca4L6sEYvPBBx9EG0iVg+uEm6EEN3Z7nkfj/ZIgDHLWxSHsueee8YMN5zG0EkiCkASh2yuwEATVVaU916blAeTiW1eenYmfts6EzjfPpA4IASLLg/Xrb8XXxCQAWpo3UATgrBRbbrllZUdZVoRCELgvmPBZMh555JGwBLBU2HV25ZVXDiDXNqJAy6eJIzSXXHJJaPPvvvtuWDjcF2FxHxkKiAqAR1aQGJYO99fGXXfdFa6KEqS4+uqrhwWAJYTbRFv6zmXCYuFd6Uc/uA5YXJEQFhFkpsRwCFC89tpr497adJ5rKGBivTLtsXsrPAnCIGXN5+fBscix4vSPDVKgg7w8CUIShEEuoaYvLwQBmANxmnFtDALzOq35qKOOiuA7oMqkTrMHzMDcpm9M/UgGgOSbB6KC/AT3iRtAPrgHBPc9+OCDod0jCQgBggD0vYvcg7sBGfHbuwnB0CcWA1kQsisAMo1cH6RLbrPNNqHNv/HGG3Guv1lGAbzsC1kI0hxlQXBDsG5op8QgIAEsAlIyBTA6uBmMQ9/1gcsEyUBaEIkS8IicuKdxID9cGawrSBQXBDcFMpRZDE0vz0FdkARhUOKrgu2fffbZ8bAwITKJ5TF0EkiCkASh26uvEATZCLIS6i0IcvwF1wFBpv8SgyA1EZhffPHF4TJwjiwDgYNcCgAfeANN2jP3BZ8+oKZxszgATZ/T3MUDiClw3f777x9ZACwE0gVLbYVSeEgfvbvEQnBRiKHiBtC+95m2ALqYBpkSYh+QlVNOOSUsCDItuBiAPQsCssMVoI2ll146CASXA2uEWAOgz32BOCBAiI20TIQGedI+EuBexrvwwgtHxoP3qva1yb3CSpJH9ySQBGGQsgZIHgb5yR7Eueeee5At5uWDkUAShCQIg1k/zV4LUD3/kyZNCm1ZZkJt7QMar8j/3/72txGUKBJfBD/SAGiBKBcEk77AP4QB8K+22mphKQDQgvW0gzTQ7sU0MPsDWUXaXKctmRSKDvkcwCMBTPriGpxTDn1ccsklw9rJ3+8eANj5nh9BkwgIcGbep+0z9yMyrCFirrznpCqqAVGCFFkmWA/IBKhzMbCoeDe6h/uyQMjoIAvXrb/++nFPbSMpSBbCgihwa+gLooPMsHaQy0DVGpudwzy/fwkkQWjD6vCQC8xhJuQzy2PoJJAEIQlCN1cf64GUPnn8A7kXmdqZ+AE5dwLgpa07aM+C8JjpuR9o1dttt12AI/KBLJTMA+DKNM9ayfKAoABiMQNM+Soucjv4HGHQluBF5APocl+wdEyrv7V1EfQPwKufwMrB3eC3fgouZLWgHAF7lox//OMfQVwELCI1rCBcsYgCEsVFUT4vFhXWCOM1BuSJ9YK1ALFBDpAqY2OFyBiE7q3wJAhtkLXFjzF7AJn2suxyG4TaYhNJEJIgtLh0Wr4McAOxgQ5WAD8Au+yPIFgR4Pm/vDdq91DQpvaL1ux8MQ7FF1+CGl1b9mzwXdnDwW9HLeC7X7PvKO0Afm2zkCAX3nt+ADkCIqZA3xziFozJZ851vXOMwzm1rtja8ZJjbXGnUrSpyCzTHAdaZe39PglCG+Rp8WPTUnQw51IspQ1NZxNNSiAJQhKEJpdMnp4SSAn0I4EkCG1YGkCJiUwusfrqTGF5DI0EkiAkQRialZd3TQn0ngSSILRpTpnUEARRvCVdqE1NZzNNSCAJQhKEJpZLnpoSSAlMQwJJENq0PAQryWEWrCRoJ9Nx2iTYJptJgpAEockl8y+nW0OC+6To8fk3El8w2Hvm9a1LQCCjKox5tF8CSRDaJNPiZhCkqMhHqWPepuazmQYlkAQhCUKDS6XP0wTDKWQkhU+KnSOL8wxGop2/VmbD2LFjB8wi6XxPeu8OSRDaOKfSHeXqSkOSdtRspHAbuzJqm0qCkASh1cUvW0A1RLsILrHEElE/QE2BEpnfart5XWclwFqbFtvOyDgJQhvlys2gzrqiKCwJtbu6tfE22dQ0JJAEIQlCKw+IdWNnRNUN11lnnShHXLvpUitt5jUpgZEugSQIbZxBLxlbptrxTOEktdLz6K4EkiAkQWhlxVk3Ni9SyQ/JT420FSnmNb0mgSQIbZ5RQU22PrW5ClfDQNXV2nz7Ud9cEoQkCK08BNaNbZXtN2AHxKzW14oU85pek0AShDbPqKJJ559/fmxmYtOR3Lu8zQIeoLkkCEkQWllxnlu7LSL49hrI+KFWpJjX9JoEkiC0eUYBlB3LTjrppNia1cYkeXRPAkkQkiC0stoQBLuxymI4/PDDkyC0IsS8puckkAShA1Mqh9rLZs4556zGjx+fboYOyLi/JpMgJEFoZbklQWhFanlNr0sgCUIHZtjL5tJLL60eeuihsCTk3gwdEHI/TSZBSILQympLgtCK1PKaXpdAEoQOzDCQsm/7AQccEJaEeeedtwN3ySb7kkAShCQIrTwZSRBakVpe0+sSSILQoRn+8MMPp+6fvttuu6VPs0Nyrm82CULnCALZXnPNNbHF7+abbx4VBkX9S+1dZZVVqplnnjlurjTxe++9V6kLIotHoK7P1AeZMmVKbGbG/SYQUJnc3/3ud9XNN99crb322tUss8wSMTysbxtssEGkHi611FLVkksuGW0LIlTQyKE/L7/8cnXnnXfG/ie1dUfUMGgmE6GXCYJtmu00S7bmqb6+g3l57rnnqmWXXTa2jP7oo48+tj10WVGuk/6ZmVldepkNg9skQejQJHjh3HfffdWpp54aedUzzTRTh+6UzdZKIAlCZwgC4PBjQzIxNgL5/u3f/i32HwHQCgzNMcccQRqsff/bywAxUJUQkfjzn/8cPwjDdNNNF/XzDz744Ortt9+uDj300LC2ffWrX61uv/326uqrr44g32OOOaZad911ozKptu++++4gD+a5kI4XX3yxWmaZZcKVB7z+3//7f0E2FltssYbLJA+WIOjPn/70p+rpp5+OEs36og7KbLPN1nAf2vkkkzPihkyZh4kTJ1Zzzz13pF+bNwfCsOiii1aPPPJIdcYZZ1RbbbVVRbH5+c9/HnNoTLWHypLbb799U8SrnWPKtrovgSQIHZS5F8auu+5arbfeepV64VnTvYPC/t+mkyC0nyAAYqCMCDzzzDMBOt/4xjeqxRdfPEgwjR8Q0tiB/y677BIpg0Db91tuuWX1wAMPVO+8807UBnnzzTejpLF6IdxvN9xwQ4CS50RZ48ceeyy0WOmGxx9/fNxv9tlnrzbaaKOwErz11lvRxm233Vb9/ve/D8Lyuc99LogIa8PnP//5AEMEpFFtdzAEwbUIkAJp+kXT1mckYeutt65WWGGFqaDc+Sfgn3d46aWXopqro/SHxQY58IwoC7/88stXBx54YMgagWABUlraHBvTb37zm+qee+4JcsZyYK5WXnnlIGB5jA4JJEHo4Dx7yJhkvQBZEphT8+isBJIgtJ8gsBzYwOiWW26J+h7Ab4EFFgjQePzxx6tVV101/gbyCy+8cLXDDjuERYArgUuBe8Aup++//35YGfxGnmnYwId7wfdLL710tdBCC4UWDvjtioogADjgtNpqqwXJRgycz0LwxS9+McznKpeyOugbrRgozz///A279gZDEFgMWDoQF6THGAAwyyGwVYBJ+uSDDz5YrbXWWtUMM8xQXX/99dF/cgTEl1xySbXmmmuG9UH8kjGQHeIFlKeffvoAbeP2OUJEdtriovnZz34W5Mj1iyyySFgCgP+mm25ajRkz5mNEiZvm6KOPrmadddbqBz/4QbhpzAfrDXKFXGj/gw8+iDYQHy4hZCuVnM6+v4Zb60kQOjwjHrLNNtss2PyKK67YsEbT4W71bPNJENpPEMgUwPk55ZRTQmMHyCoOAkBkgLbOarDtttsGMbBpGWvCJz/5ydD8WQXEJBSzNW0W+HkmABKXhTa54rgRmL0VGvvxj38cgEvbpeGed955Yc1gSWAlAFpiIgDoX/7yl+qFF16I85jLEYpGCx61ShCMB2gfdthhYSlZf/31Q8MugcrIEpDW/x/+8IdhJRk3blyMCwgz2d91113VWWedVZ1wwglhpbn22murueaaK8CYRcK+EFtssUWQMecgRQgA+WoTuO+3337htiEXwdFkbQ5YDD7zmc98bFEYK2sO2e+xxx6x+6wxiJVCTFhukArkRbv+RybcD4HIY/RIIAlCh+ea9nX66adXr776aqQ8NhM41eGu9WTzSRDaTxC0+O6771aTJk0K7RX40PaB/6OPPhrBhMDu4osvjhgFILL33nuHRks7XWmllcKEDXSY3c2R62yJjhQgAwgCjR/APfHEE2GRQDiQEM8O0KfNAqlzzz03tGYEoPZ5QhCAayEHALPRo1WC4DqgDmRp5chRcWvoj+BJsuJ2cQ4N37guv/zyIE3IFdKD5AB21hCEQfwFtwp5soogS+I6kCqEQ2AhzR4pQSYAOYsElyZZsfSwDvhsvvnm+5gYtMeqiXi5D3nrGxKi/+JCWGCQhT333DMsn+YNsfHTqNumUdnnecNXAkkQOjw3RZPwcvOA89vm0TkJJEFoP0EgU4GAe+21V4ARrfy1114LcAFETz75ZGi7QMRnzncuIOOWcA1b5ruoAAAgAElEQVQ3AqDiLijZB54FGrdng6WNdi24EHmYPHlyaMfHHXdcEAvaLs3ZvRFtLo8vf/nLH7MQsHAw1wNLwXjNAFmrBMFYHn744Qiw5F4obhCzgMQgK8a08847R58FA3oPIAKvv/56fG+DKFZGwZhnn312BBeyMABmrgvaPvIAwN2vBBmShc/EXrBQIiPIms/NF4LgO8SrNuAQweP6RBAQD/1A0DbZZJMgFLUEAYEzLyw7zvd9HqNHAkkQujDXgryYIGk/GHkG+XRO6EkQOkcQgBSNHsgDFuZzpn2kQKAbUrDGGmvE38CSj5y7QOAbEKXZAm0ABsgFMWpD7IL4AVo2M7qAP5a3EqSoPWRAih6ioA+uB4a1FgSmdlYMbQLqbhAE0hZ7AGDJheXkS1/6UsgA8ANilgVWBKmf4ipKACMCwDrCqsDKiEixCvRFELRf2pZiynqjHXJBRJAB7h2EC1lDEIC78+pdDN5HSEdxeyAI+kW23AosGv5mQTDnYinEIOQx+iSQBKELc172Z/Ci8JOFkzon9CQInSMIQIh2DgjFIuy4444ROCcAl1aKIDBN+3unnXaKYEQEgg8diAk8RBQE0TGVA7fVV189gvJYEQA7dwPQdCAIfO5M9cgFwvGtb32ruuCCC6o77rgj7l17mHtZEMzswK9bBAGZ4XpBXEp6IwKD6MjaYCUA1OTCcmAzN7KzTwuiRQ6nnXZakJ16guB9Acy1XSqz0uQFJ0plZJngnjA3xYJQCAKZinFggak9BCkiBGTq/qxBrDX6jGBwOXALCThlTUBezBdiZxzNyLVzT3q23A0JJEHohpT/t8CLiGwPr5dsxiJ0RvBJEDpHEAS0ASYWMCAjTuDXv/51xBJY14CeOR0oMnkDRsFt4g+AGSAD/iwK4hQAjXPEKdD8uRNoqnzwYglYJnwm8h+RoPk+//zz4X8vxZLqR6tNJIEmXOoyNLLSWnUxlLb1TT0HGRZkIiYDyDLJA1WHtQmM1Y7gfmFBEIvAciATxMElQ0bSI5Er2QmI1nbbbReuBQSKVYb8uQ/IheWE1u9vtQoKQWBxQF7Io55ImQ9kCzFQJAkRk7qKyHHxiAVBdpATsRBIIYsCEldbkKoR2eY5I1cCSRC6NHdeDny1SEIJKEom3n7hJ0FoP0HQImADIrRUGQsAilsAiKnxQbsE6oCE6Z/v3Lm0ZIV6zIuI/Isuuih87YDT+mdeZ40AfrRVBETuPaCcMGFC+OwBHwAFarRvRGRaB4B0D+mBnc5iqO+Hcfopz3Zfz3jt9yU2oJzXyP+15/R3HesFcgXUpS/WHiwZYkIQOy5P/5MpIkDu5qk2ZqFci8gga/WEo/1PcbY4XCSQBKGLM0GDYq5jMvUyzAet/cJPgtAZgkATld6IEABdcvY/a0JZx0r6+txntGmBbbWZBEgF7Z/mrB0HzZsGDNRZJPz2PzKg0h+zN23cDy3fM6Qv0zqAJqJSNPdGVtlgLQiN3KOb55C1zBNzUGRd7l9iEMwj90YtiRHoWe+6KdeZG5bPVGy6OZNDe68kCF2Uv5fns88+G6lL/LVMhPmwtXcCkiB0hiC0d5aGX2u9RhCGn4SzRyNRAkkQujxrtCypTAK2+GllNuTRPgkkQUiC0MpqSoLQitTyml6XQBKELs8wABPEJOpYWpeo7yxf2r5JSIKQBKGV1ZQEoRWp5TW9LoEkCEMwwyKwL7300ghaRBT4AfNojwSSIDRGEBTicfDp8zvzS4/mg6tPfJCAPYF76fprbDWQk7oPKa/G5DXSzkqCMEQzJsBLERI5zQqcjMS0R2AsYMzLoVR3qxcnzQz4+N55rvE/q0knLCdJEAYmCIoRSVcTyW4vBRsLDRT4N0SPSVdviyg5MhCvcbELBFXoaiS+vxof5eg9MwnCEM09IFMxTYEUhV1UWhvOh/5KVwMmJQWKJUTambx26U/lEMUuAt3Lww520uGUl5UTrw1131XFW3bZZduueSRBGJggSDWUyy7CXQqhgjijfadRZNW6LJscpUbc2NuInKydTpD9xnqQZ3VSAkkQOindAdqmXStjiijYEnY4pz3q6wMPPBAFbYrVoBSHkVJWyugCaLnsKrwhCQiCYjCK3iAS0t8UcGE1Uc7VAay00Y4jCcK0CQLXlmp966yzTsyR9MF8uVeR2mc/BQRBWfRG6ye0Y81mGymB4SqBJAhDODPATDaDOusKmgDN/kz1Q9jNqbeWW21bWOVykQNEQWU3td6Vz3UgOTbK8R3SI+/dRjzIAk3VhjsXXnhh5GazNDBNltr57XgpJ0EYmCCw6NhR0JylpvxPeWWQ4nB4w2QfhpsEkiAM8Yx4MQlWVPJU2iOzezuAshPDQgpsPgPguQj087777gst1M584ir4t9WAZ1FQlU0Z3RdeeKFabrnlwuVw//33RzlY/996663hcmBdaFegUxKEgQmCOVAVUbnjPJIg5BpICfQngSQIw2Bt0LbVXL/pppsicJGmPRwPBIEFgauBpUMMgr8BjX3kkR1WAfEIJd6Ai2HSpElRXlrNd+Zt28putNFGsckP/6UYjHbtcJkEYWCCwKWFILTLrTMc12qzfUoLQrMSy/NHgwSSIAyTWQa2dmzjoy8a9TDp2tRuSIkTTwBg+K0RGzX6beoivgCBUAjK3vasBGeddVbsDGcDGBvnqMvvGoGOSMK5554bdfzt0tcuU3cShGkTBLsJInn2BGmmFPFwW4vt7k8ShHZLNNvrBQkkQRhGs2iPBhusADnbsQ6nF7g+vfTSSxFzgCg4kBo7y7EgLLnkkpFPf/vtt0fxJxv2nHTSSREpb7MY580///yVveztU89y4Hxb+rI2tOtIgpAEoZW1lAShFanlNb0ugSQIw2iGgZud1BSxsV3t+PHj22Z6H+wwvUDlzCMIJc1RxLed94C9GIRCELgbbGer8Iz95W0rS2PlRrAHBfKjHWRBYGY7Yy6SICRBaGWtJ0FoRWp5Ta9LIAnCMJthL6qyoRNf/rhx44ZN+qMsBkVRnn766akxCFwIMhJYCRAGAZeIzUorrRRVIn0upuK6666LQMTVVlstXCncDgIVd9ppp3BPtIskdIIgaHMgF0gj5/S11Fq9rpVly72TLoa+JdcOgtCtuWzkPo2c08oaymtGlwSSIAzD+ebL5+dnSVh77bWrDTfcMGoFDPXhpeNFylIg+PC9996rbrzxxmrVVVetdtxxx4g/UJ1vwQUXDDKgOBK3SdnG1/evvvpqfL/YYotVkydPjs2q5J3bi34gEG5k/O0kCMb6q1/9KuJCxowZ87Gti0tfnCNLA6kTdyF7w2EsXESlxoDziuXFZ763rfG9994b7plpuVlKeqk1gGy1SqaSIPS/ggZDEMo6sccKYmxukeX6w3oQ3GseWNOc5xliNfQ8eDYEjs4999z91qZ45513qhdffHHqM1Z/j5I6zbI333zzxU85pBSXNGrvmOIq9L3/yzbPXIcfffRRrF9pyQ7PrufemvXbejWOsqa1a31a29qy1bTrWRdlOhkr2fRVc0Mm0+uvv17NO++8IZf6qp71z1Ij74E8pz0SSILQHjm2vRUPqxRBPnqpj1tuueWw2fnRC+KCCy4IEqMGgjoG4gtqDw89F8Pyyy9fLbXUUvFiUD/Bi0vWAtIgq0FapIDFdhGgwRAE16rboO8Oc3DVVVdFn2VhzDPPPPG5lyECBKhZUMSNeKGyhHjBkY/xIEizzTZbxGoIDPTS9D2C5CWIWAjUVDjKtdq1LwdZISXlRYlklbRERGy66aaLfpB9KVDVyAJMgtAZgmC+ZSDddddd1dFHHx3WMllJtftbmPctttgiiID0X+41sTssOuJ2TjnllOrMM8+s3n///XDBeT6srz//+c/VH//4x6lALGvoyiuvDNedeiMO60WdETVIrBuE+6233oq1ZB0iK0CWZa9sMQ+Qd99991irDmvf+nDPUhLdGvcMI6gCp9944424FzKvyJnsJGvbc8Ilqp6LNWm9em8hB9arAlTGX1uAyn205bmRNs0yaQ8MhMkYC/HQF2NjjZROnUd3JZAEobvybupuRTPhvwdOzPHD5SEpGocHuLxU6gdX9lwoloGiRRcN2EvATzsr+Q2GIHiRelHfcccdU906RasyhtJPlSJ32223cKeoC8FyoFS27714VSv0vxeyl6wDiXj00UfjRam8MRApW32ThxctjeuYY46J33vssUe8mIvGpx/6UPsDIJCzRoNZkyC0nyCYN+uFJY12L32XlUcBtAJyBcTnmmuuAMRDDz00wF0tEfONFNiTxW/WBGTbutl+++2DPCiNzbJg7q0DP7V7mZh/61FBsokTJwZpXHfddWNdcOXJPJpxxhnjHO8R645FAKnRR///5je/iXUro+gb3/hGPNM+1xeAjyDIQhKA7B3EzYjobLXVVmH5eOihh4IA6DfSjORwPbJACG7WdySiPEeeAbFKCAhrJCWBpZRVUdu1B6JBQdJeHt2VQBKE7sq76bt5GTApqh8ALLbbbrt40Fo1MzfdgRF2wWAJAiCXhknbY5L98MMPQ3NiqgXuLAxekF6EQEHRIS89qZ4OL14WiGJOBuDLLLNM1Pn3ovPy89JllfDS9aLXZ/ekGfqMJmgrcC9MYFNrUQAyiAMw8cKWPtoowUqC0H6CgFQie7Rp8w74adeFtBVt3J2tEevmhhtuCDLh2VYsDCDT9hFOxcZYDFkQkA3nskywulkXCInUYiSABcI68F5gnremEAprFpi6t/NZIZzjnaHE9ve+9704B2EtxJN1Sxl1MUKA27XWP6KLIKjPwjogpsi6A+Ta9HkhBKwT1jtC4p2lOqx2kAdrFJEuBMEYrV2E3PNgvCxrxqXPtYdrWc3aVStlhL3ShrS7SRCGVPyN3RyA8G8yR/J1jx07NrRQD1UeH5dAOwgCrYumxTXipS6oUpVLboBjjz02vmMiBtQIAr9s/eE7L9FtttkmAANB4LflUvGSdZ02kAwvTS9lAOGFCwhoeyuvvHK8yO2ZYO6BgSwQrgmbZEkX9bJu9EiC0H6CYL2ZFym9rAasRggDjbyAs+cUuAFxcwl4adUsg55rawSYcksgipSAor0jjYAfyUQI+PFp557/NdZYI1xUZY2wMnDjcS/UH6x54l0AM8sE0qsd69QYEB33RgKKu0+/WThca136H5hb/0899VSsY6TA/ZEAKc3WMatasTZoW2VV4+d2KPE3pX+sHp4F5MTzQG76UU8QEC8EYziXom/0ORxJ5yVBGEGzVUDniiuuqGiSUgk9rLnV6v9NYjsIghc+mXqpeVkrg02zYl71P22OCZdmBQzqX2h644VLswIY/RGE9dZbL160XsBMwDTDQhD4h92TbxY5cQ/3Egvx2GOPBbE444wzmqohkQShMwTh+eefrw455JAI+kPegSjSJx7AfiR868glgPXcIpSvvPJKkMU777wzfOzAFWnwjHM3cGPx33MD8Mn7DFGwuRut2/rkcgS+9tRgcXIIEmbyr3Vv+Nz/CKiAYmtYX623YkFAVJj7rWvZRfpfLBMsEO5jjbJo0fK5BWqJsX4jLd5HXC7FUqB9pAUxQHKKu5GFQ5aWIGAVVcXqkFMhSZ4JMVgOlgXn6lcShO4CVhKE7sp70HfzoDNP0hw8QPyYHvoSIDfoG4zwBgZDEARsyRyh+Qkm4/sVeOWlxfRLe/MS5e6hPZH/tdde+7GI9WJSRhBYe7zEXdeXBUGgGZ+0l3V5YSMINEEWBNomUPCSRQb1zUtYu8zFfL7FtdHItCVBaD9BMM+sOZdccklYfjyPQFIArvofBx98cASrIhGAGcgifYB84403jmBf1UQF85bNzYAxLR6IigtQM4SVgcXIeuQO4P/nBrMWrRUatmBGMQjWVDlKVkFJn2Z14GJQuMyaLgerGXcGEEdGCpAjLqwB+sSFworBsqV/LAdcb9xugmgRGgGMiCyAF4+jL54VfdNvZIacuOlYMzxPrAZrrrlmyMmhr1x12nQU0pyKUCNPeXvPSYLQXnl2rTUPnsh4pmcPN1+hEsfM2PVmvK51ahjcaDAEgUxFXNP0vLTFA9D+aXhImReZ315qXpAirmlrwJ3MWQwUkwIEgNsLcc4554yYESZo2g/NEfmQ+sWC4KXshajQVLEgICo0UpYDJtjTTjst+iJ+ATGgdQIH/uRmYlGSILSfIJgrbgCkDWACMyANYJEFoIck8MsjBMiiOBfXCfCzq6Z1x6XgOUZOxSkI7mMtEttgjWnD/7R3806Dt57EEWgDKaHR64e2tWP9iV9wX2uYZQz5FPOgLVaDcgB0VgAgXIDYs+TcCRMmxHOB8Ahi9Pltt90W8RPWurgHbg0uE7EUBeBdo0+CMp1DBmeffXaQJPcjL7JjRdN/mQply3vPlOvJ0fVJDobm5ZoEYWjk3pa7ehA9SLQVLwIAxRzHd84UiCw0AyBt6dQQN1IIAqCmgTQa4a/bwNgL3kuRliWGABHg+/RypUXR9FR/pOGw4tCqvOi8GJE0YC5Qy8ubqdVvbgYvRqQAcWAF8DdzLvMxvy2TspcoUgAQivUCWbn++uvjGqDhxexFC2QEeRVNrxGxJ0FoP0EAdIgi/z4/vGh7Wj0CR0uWjWJNmDcaOz878ge0rStrClFUC4M1AUlgKRCUR1sXA2ANIRqA1L1YARAA6xtwlvOl5JbdUp2rL1IIvQ8AMJeG+BWxBwhJbW0OxNXaZ6nQfjHlI762B7ce/e1zVgOpudZ/SUlk3RKP4HvtUl5YOxAi7g9EhzXkvPPOC4uDmAOuOq4FMjBWpAVB8AwjK4iPv/U3CUIjT3j7z0mC0H6Zdr1FD1EpQsRnyZzpIQVutFcA5AEsfnW+dQ87v3YzANP1gU3jhv0RH7JgwvUiFVzYKEFwHQ3dy0gwmRewl78Xnu+QAP5SLzR+ZNoUoFbIyksS+LLgIAyIhu+8+JmHaYr8v8gBC0QBerENZRxe3IK7aEteyKLAFcwBKu7vPHPKry32oQSB8Xk3Gt2dBKH9BEGL1oqYECSdK0h9EIW1zCEQFTdAk54yZUqsH0AO/BAIwO8ZZMpnQaL9W38yXmjryEUpvlXSht3TedYjAslKxapg/XjePfeeAS4qbVu7yAfgFw+AnJQaCtxkUivdW2zTvvvuG/7+2vRaoG5NAnvrvhAAbopScIlrQbveNdY8AuDenicxGcaMJHOHUGi4H5BcMig1DhAELhsEmVXF+Z4Bz0mja3w4vaN6oS9JEHphFv93DKWugBeCgCcPP83AA+cF5cFmYsTSEQQmxvpgppEijhJcVd/fIgMme8FczRAEL3YvQuBLA6s/SnwB37CXN78qqwHtkauntgJciRZHGMSHePF56ZK/+9AyERjj4D7wkvai97eXaako5/Pao7amBBBCEBrVrpIgdIYgkCtAtg4AojmiUdOiEXOaPlJorj1zrFvcD0DQfPvOGqmtugnkAav4F1ZBbdU/q2U9WisIAmLKfSWoUMEm74GyXsQByIChSLgXsqo9Li4EBtBzbegPUC7XOcc6Zw0omROusd6RAZuycWUgJ8aBMIul0CcxCawKyC0CQjba8kxy4SFT7osUy55gbUGgkRQEyHuKtQ5haTSVd6S8v0ZKP5MgjJSZarKftS8Tf3uJ0Ty9PLxIaNjMniPx8PICtP0dXjI0MoGBjRIEbZV0L0Be6hP0dY9aq0t5Sff18u7POkPjRBi8AJ1TUs2MyX0BiRenl2x/BK603YwFKAnCtAkCrd5cSMdrxjVXUh0BcnHrmV/zXOvTL3d3vnlzDosQawGA7OvQhjWhPwOthdrr+zq3L5AtW7SXZ8rv+jUFrJEAfdRX6wjRQDJqiUQp4OQ9U+oW1LZVyHvpZ3nGSjXH8qxymzrX+ie/Ztb4SHyfDec+J0EYzrPTgb6VF4ffpUpgB24zZE0aF78rMycNfbhUnhwygdTcOAlC/7Ng3TDns7ZZN41aZQY7r4UsDLadvD4l0AkJJEHohFSzzSGTgBcun6lYDCZNAYd5/FMCSRCmTRC4lwTTMbknscynJiVQVUkQchX0lAQKQRB1zc+r+Ao/cB5JEAZaA6wHAuUEl9pmvV0biA103/w+JTBcJZAEYbjOTParJQkUgiCIik9fSpYgJ5kHZXOklhrugYv4m0Xby5iQs95MfEYPDH/AIfD3C7ZT+EiQqYh90fklN3/ABvKErkrA8132nOjqjUfRzZIgjKLJHg1DRRC84EV9y0WXuiVynHk9U6WqiGwXFd9sjYjRsHaMUcCcAkBcVGoSiNPJ8r7Db/YFLnIfSoHMDIfOzU8ShM7JNlseAgkUgqCmQSmbLLVKdDoNcaSmdbZDlMYud71UvUsLQt9SZWmRFiwav6ybdsg/22ivBNSAaLZYWHt70PutJUHo/TkeVSOsJQipJX986jNIcVQ9CjnYlMCgJZAEYdAizAaGkwSSIPQ/G0kQhtNKzb6kBIa/BJIgDP85yh42IYEkCEkQmlgueWpKICUwDQkkQcjl0VMSSIKQBKGnFnQOJiUwhBJIgjCEws9bt18CSRCSILR/VWWLKYHRKYEkCKNz3nt21EkQkiD07OLOgaUEuiyBJAhdFnjerrMSSIKQBKGzKyxbTwmMHgkkQRg9cz0qRpoEIQnCqFjoOciUQBckkAShC0LOW3RPAkkQkiB0b7X9804KcKlQqfCUsszvv/9+lAAuO0K+9tprUY2xbAWtWqMtjfvbTdXWzvaBcM1HH31UPfjgg9Wcc85ZffWrX41CX2+88Ub1+9//vlp88cWnWR3UdtLPPPNMbJe8yCKLfOxc7Tz77LPR12WWWSbG4PzaQ4VC5cmbrSTZzPjI4d57742S6MqhO1Q+VcVSpcTaXTX10XgUSHKugl/ksOiii/a5++Zf//rX6vbbb69WWmml2Ka6r6Nsb60ff/vb36oZZpgh7mF7a9f1tR9H7Y64/a21+m2uy3m127Sb/9dff73685//XC288MLDsvR5EoRuv03yfh2VQBKEJAgdXWB9NO4lb6voNddcM0DfrpBbb711NWbMmADn73//+9VnPvOZat999439QZ588snqJz/5SQCv/wtoWLtAaqaZZoprZpxxxuq9996rDjnkkOo73/lOtcEGGwRBuPLKK6uHHnqoOvbYY6cCWD0g+R/wHHPMMdFjJYlrwU4/7Xr68ssvVz/4wQ+q66+/PqpsIieuVU0SOTjiiCOqmWeeuSmRPvbYY9Xpp58eY0OaasenOuWXvvSlao899qi++MUvBhFw/w033LBaY401Ynz2w3jggQfi3siAQxtkYzzzzz9/bMRm582333672nbbbeNeDtfbnE3fr7rqquqss86K+/UF9Nr89re/HXI944wzQhY777xzEBal2snXtfWyJSt7mhSCVzu+0leEZJtttgmCgnDUEoTdd989xq70u3bKHAzHTeWSIDS19PPk4S6BJAhJELq5Rq23V155JbYW32ijjUKrP/LII0OjPfzww4MY7LLLLgE0dooEmI888kh19NFHh1UACSiHtlgb/FYmHDD/5je/qQ4++ODqm9/8ZmjUd955Z/XSSy8FsC699NIBMsstt1z8IBzvvPNO/NBIadz6AMD0r4CkglnaQDQA7Pbbb1/df//91W9/+9tqyy23DCuI7y+55JLqpz/9afXlL3+5KZFqy/gAeT3oaVf7+sOiYnzI0Kqrrhplk6dMmVLZVdPnSy21VAA/C8cKK6wQVpfDDjusmnfeeYNkAV5EpuyxYpysHptttllYFRAMG7W5T3/WA5aLueeeO2SGMLmP+fG/62stD8XaYKdY87DxxhtXn/70p6vnnnuuuvnmm6vvfe97U2VljLPNNlt19tlnhzXJPOsbQmA9XHfddSEfhMz6Oeigg/q1cjQl/DafnAShzQLN5oZWAkkQkiB0cwXWE4R11lknNnu64IILghAsueSSoZUCv3322SeIw6OPPhoEYMUVVwxTea3JGjgBapqyz2nigBDYIwTM5szfH3zwQZjlgcvYsWNDi9Y24LFZGc0ZIQBy9pOgsQNbYOrzk08+ObR07gA7V7qWKwOwATL3Q2YQBOSmmUO7xsfqUcAZuNK4kQdjYBVx6AcNGtDbRMyYjY/rY5555qnefPPNikxZGPQFedA3RIam/7nPfS5IAHcD4jDddNPFxmwnnnhikAguA7KvPxAQBA0w0/LNF1kUt47+sF7UWg9YBMgaQfjFL35RrbvuumEtsm+H/iIE5OtaZAFJMX9cQ7fddlu1/vrrh6VG3wtBcD9jOvDAA5MgNLPI8tyUQCsSSIKQBKGVddPqNX0RBJouSwBgALbAm0a/5557BnjQTmmdfcUh0CiB3te//vWwEgAUAAJoaav7779/mOCBOUsF14H4AuAF0AHWOeecEyShuAiY/AElsAOKBxxwQPRj4sSJ4QPfe++9Y2Mq7ozaA9ghD6wgjR5iMYC18SEm9ZujGR+tfKGFForx6a8+AHF922GHHWJ8iIR+nnrqqUGiuAK4FBAGrhMuhscffzwsD7PMMkuMl3WhxIEgB7R1MQpiCWp3fNQnJA1RIkObub344osxRG6Ma6+9NsgB4qG/yBhrC7fRuHHjphIE24EjFt/97nenWkrMqR1knYsAIgiIi3lEcn7+858nQWh0MeV5KYF2SyAJQhKEdq+pabVXTxBolbVgJMhwq622qoAJELeN9IUXXhjaNK2d1upvmnuttgq8ABsNExkAiEiDcwAlMNcerRoRYaVgzgeu9QQBYANSgI98AFt/szLwtdNsb7jhhiAutYex7bTTTgGKgHKgA+ng90c8jAlYG592amMttIN0MOdr95577gkrAaLjOm3QyLlsLr300mr22WcPWbCWAH6uB5aZCRMmxG//33LLLdV2220XsQRIhs+OO+64CHgUY1Dbf/3hIiBLFhZEyuFzZOXQQw8Na4Z7LrbYYuGGQcx23HHHavXVV4/5Y0FYeVIzyoAAACAASURBVOWV435iRsyl9lgvWEB22223JAgDLZj8PiXQbQkkQUiC0M0115cFgYYL4AEkUNtrr71CowRUtFW7jNJsgRDNlVmcORqZ0B6CIf4AqaDRAjrnAkcgzAXxj3/8IwLdZB64nnViiSWWCO23liCUGATatfOKlqxNlgXtiJtgcgd47gucab0CL2nHNN9GCIK+swqccsopQWBYTfQZgPqbdQEBMD5xDTRsn4lH0AeuBpYMfUEsjI87geWEi+QrX/lKddJJJ4X1gVzuuOOO+AwxYrFxD0QEUTDWn/3sZ9Xll18eFgvyq83GIGuuk0033TTImYNsuRuAvriHJ554IggBYnbUUUeFy0gsCGLFQmJ+WC4QruKO0K54BHEdCAYLAlcJl4KYhbQgdPPpzHulBOokkAQhCUI3H4pagrDeeusFGAKZLbbYIkAWWAMq4CJKH+ABZ9o67bSk7QE0mr7AtaeeemqqK4B/m0YLTBdYYIEwdwMdJASgy5wAfPzfrAP1FoRaglCCFJGCu+66KwCWSZy/nF+dfx2wA1saMBP/2muvHZp8CQAcSLbcCvz/UjGBPlM+94jxIQCIEKvF1772tdDKjYdsjENMxR/+8IeIXyAn4MzyYXzcD4gFjd/vEnuBFJWYAL5915gD42IlQHIQBPEbtHwEpRAxwYlIW8mAQExkLhiD2IT77rsvCAtycfzxx0fgpb8RPCRqk002CTm6/oUXXoixCCTVd2uB5QOBYC1B3DbffPOQB8LFDWE+WXIyBmGgVZXfpwTaJIEkCEkQ2rSUGmrGevvVr34VmQY0XcANzGiQzNXSGYESLVK0Ps0ZALoGgQAOtGDaJtM60sC3TgtefvnlQyNHEJALZng+b8BFi2Z9YJ1gmgeizNt83eeee278IAQ0X4c2ihujuECAF9AWVc9sTjsW+AcUSyAdgGbG1yfgXp/2Vy+kQhBo2MjO888/H9cBcmSJti0QE4GigSME5IKEIEE0fm4YWRlIALM+omF8rAYIDwKDdJA5Uz+Xhn7pN1KDLNHYycJcOJ9cyZv53xhZJ5ADJKsEJpKtYEKuG24X1hlWBYRG0CjLAbIh7kPcAxJAhogVa4MxlywIAan6aP7EQoi10EfjZJ3wv3nnvjDODFJs6HHLk1ICg5NAEoQkCINbQc1dbb0BT6BBM2WyBnSsCMzJtGI+fLECtGY+fSZs1wE+/neaK40daDDJ02wBDJM5l4SIf8DDHE8TpYHS7BENlghgjiRcfPHFYZFgBXBfwCeoz72KBs4SANBo1PoBoGnwfPXaRjoQCyZ+JARRAbyC+QCvgMZppT3SrLkBXC8OQEYH0oAQCPQDhvpmvIhDsSAgQPqCHHBrAF+gTDYsHIgFAsRVoh8AHPALYnQf5nuWGedwt7gngNdX2vrkyZND00cyBD3S/lkDAD4SIB2RRUWsh3gORA+4k515ZNVBIMyHuTYfpWAVkuZaFiDzq49kZ4yIw5lnnhkydy1yxF3ie32UWkm+SRCae+7y7JRASxJIgpAEoaWFM4iLaKVqBoj4Z2IGtMCQhgy8+chpswACOAJyefHAiQVB2h/zNwBTXIm5mmsBKAMv4CEQEZlADMQzyK0HSCwUiAMrgGBGAD2tA0HQT8AtBkGkPguBdvRTDQHE5OGHHw5A9D2ARoL8D1iZ8WsDKsv9PHusGzT6Mj5atc/FY7BcsIo8/fTTAd6Ij/EpIAUwaer6xmrA2oEAsDogEcz7PgO++gdwycVnCIHYCeSG+R8ZQXJcw51ifMz5TP4IFauJPiB0Ah1leOgLN4drxROYQ+DN+qP/SJngR3IxtwiMeULmBFKKC0EukC0kD+HyHWLIcuE+4ji4gFgWuEAQB3PHMuR7FqjhdmQdhOE2I9mfQUkgCUIShEEtoBYuBiJe+MAKCNBSaZ9MyuWlT1uk3dLqEQKAiRTQ9gEVQPUdkAYaPmPGpokDIiDmHrRn/nwAba0jEkDQ98C2Pq2wr+HoI21dPwArYoLkAEakxff6qm8i/H3ufwSHP31aQFZKFpfxITH6ZVzaLeMjD/c2PiTC3+4hfqDESpTxOZcsyBkJ0CdgT8Z8+Ppc6iwI/kSeXIsI6C/Z6rP7a4O8kI4S6KkN1gDWBvcuVShL2qd5cn/fiS8gB+PQlnO5CXxuDOXzUmVRH/W3pIoar36QvXGTrXVSxtDC8uvoJUkQOirebLzbEkiCkASh22uu0/ezpvvS2Dt932613+vj60+OI2HcSRC69RTkfboigSQInSUIgutoegLQiqZFayuFfNzdHDAhFw2LxuQzWjFtizZW0sJozSX1rYAgLVRJXpoVray+Fj5tlwbMhEv71T7Nkiao4E6JuG92k6GuLNC8SUpgBEkgCcIImqzs6sASSILQGYJArn5EkTOhSwfjUxbAJWLchjv86w6mW9HzxQTML49E+BHVDsSZypl9+Xz5wgXwAXwH/61AMN+JonefQhIErfFDMwmLTGdaF4muXwiCYD3nCsLzeanTP/DKyTNSAimBegkkQcg10VMSSILQfoJAwxcwRquXssUnLGiLH1jwnUhtaXp8v3zPgvPkuIsW52dVXVAAHb+vVDp+c9HcItEF3anHz4cr3U20OPC3s6ACNaLvAb4gNlYLwXQC+1gxXCN9jlXDOXzNyIYsAj/SyVq1IvCbu0cJUuuphyQHMyIkwDJWKjQOVYeTIAyV5PO+HZFAEoT2EwRAqTrcZZddFlYAoCmPnLYuYlvQHGIg7x9pEF3OwiBiXSEZRABw+166mt+IgJRAG/pwO8jDd55CMlLhEBJ54oK7EABR40oWywDwuWh0AXBS3OSua8e50s1E2SMT3BO1ZY8bWXDWj+A0/XZfWQEsInmkBLotAZa3XXfdtek13M5+JkFopzSzrSGXQBKE9hMEMhW5jRwAcrEE8uOlbElNUyoXGEsrk/MvVY01QEQ6dwRSIBK/aONl21wWBznvgB0Qlw2FuCHktEv9YkVQE4AFQcqgfHXxBvqkPRH/3A7cE2UnPb9ZMbRNA2v00N6zzz4bufVIgXS62qyBRtvJ81IC7ZCAWB0EeCgDVJMgtGMms41hI4EkCO0nCFosaVkq3XExqAhnxz3uBcVhgDvzv3xyAYtAHWgrOEOjV9lPGlmJCaD905B23333CGhkNUAo3IcrQ10BpWm1IbddJUIFbAC36nmuKVUMVcZzbkmPE7jI9TBQ1b96SSEpYh/0Ub9cX/L3h80Cz46kBLoogSQIXRR23qrzEkiC0H6CQKa0dlX0kAMaDf+osrYIgtxuQKpqn+BE36kuR4NXUZAmbj8CgYhqBdDUkQAgLrhRzIEgQ5UFp0yZEjEKrBRcF8CaFUJAY7EkMLv63n0QBVYEWRHcCdwhcspV4RMD0ehhjOIeVAFkpUBmhlJza7TfeV5KoJMSSILQSelm212XQBKEzhEEgYfq3wN5m9ewHJA3dwDNXsU9mrw0RQRBTXsV6YD3Qw89FBXlCkFQxEaFOwRBVT/xDbR3KYxcFyrdMe9rg5sA+CMYggcRExo+q4Jqd+IjEBPnqHTHwqBP4iEaPcq6UTHQboRlh79Gr8/zUgK9KIEkCL04q6N4TEkQOkcQALP6/0z44g7Gjx8fmQv+RhC4F7gNaPfIA83foTyvgD/uA7EINHsV59TCl8UAzB0IAguCTXFKAGTZTbBsNKT+ge9ZJYC5mAEWBxo/iwKLg9RILhBWjUYP64bVQV18sRSNbG/caNt5XkpgpEogCcJInbnsd58SSILQOYKg5j1wlzrILSBLoWxz665iCMrGQYIUBSsiAlIduSYKQRBXICWRCX+11VaL+ARZCmIIWATsO2BDmwceeCBq2WtH8KPPtSVrgYUBSdCfSZMmRdAkawW3hE2ABCmyWDSaxcDtYe8D7hLujiQI+YJJCVRVEoRcBT0lgSQInSEIYga4A1gDBCSyEgBm5n+71iENp59+evW5z30uYhVsLywLwSY50hgBsAJIJZ1RdgKCQMu30x53wGmnnRZBicgBi4B4AkWYBEayVHBvKMwkHkIdBjvqsTi4Dslg2eCqkFnB3eH7JAg99XjnYLosgSQIXRZ43q6zEkiC0H6CoEWatTRHqVfIADlLLxQ8KMbAwULgc+4AcQBiBgQMlkNGQ9kBT1pkOVwjtkD8AYuDzW1qv+NW4MJAGvQDsUAGHPqAvCiKVOIbWCsQl2aqKKYFobPPZbY+MiWQBGFkzlv2uh8JJEEYmCCoaih1sOww14nFVPZhqN9HoWxQ064MgVICulFLQX9jTYLQiVWQbY50CSRBGOkzmP3/mASSIAxMEG666aaodCgLII9/SmCwBEHZ51qLBYuIWg/cJNwm/REYrhrVKFlO7GVRH/ugPPVvf/vbaKMEXQr+VO1RnYZaa4uUT0Gb2iqbVk1rfll0tM0yo3Il95AqlT6XslrSUrWhH0pc6yNiSV5lS+Nyj7JJlrGrdOk81iXnkYVgUsGn/ZW/Zh165plnwhLk3q2WydYfFidj47qSBmt+6g9zUlJp8znoWwJJEHJl9JQEkiAMTBDOOeecaocddgg/vhdkHoMjCNwc6jxI25TFAcgBknoKgillaQBfAIoQ3HLLLQFe1irwUn9BXIfrS0qnzabEadizQtvKV2sTiCoqddVVV0VpapkggI7rR3qpTBPXCv5Ulpq7xeFezhNYKstDX5Sldm/ZKOI49F35a2mjUk9ldSAbrmV1EjAqY0XwpwBS1xfgdQ5SIs0VUXGtOhfG5BBAKl5EbArSAPwFtSIN3FHG5W8xJwJYFddCuMiDHBAX8SeITCF0fVmhjHGdddYJGZGbzJh77rkn3FDOL6SDO4x7zHNQNgnL5+BfJZAEIVdFT0kgCcLABAFwASwv4VVWWSUqHzbjr++pBfO/g7FupHDS+JvNYlCGWvYFENpss82iLLV21HoAwFIuxWLYeMoOlPfdd18AGOCiKds3gpatqBTtWXAlYGUhANR+BIKqLkkzdyAWAK7MG+BmCUAQbIi15pprBtgCXto7EGZtEDhq34qS1ul7fVJ7QkYI0gHM7Zex1lprxdpwnb5JKzUWwO5AflgLgK1qlgiGfshwQRAQCZYIJAJ5QVZYFYC0NmXFIEzSSmWk+AyIFzeU88kUiMtKueKKK4KoyGRhyUAk+rIK2LMDsUCqbNqFEJGhGBf/C5Y1L8Yt+wW5yiMtCLkGRoEEkiAMTBBof7Q7mqwXvPRCQNOuuICRusxo9WrfN0sQgCwTvO2tAbhMCqAIOLkDSmDnmDFjIgUT0DOBuwbIA8ay34U5QCb8sATIFNEuYKNhKx7FOmDO3AMYA051J2jurEPSQRWYsqEWrd1n7qNUdbFwuDdwREZkfWgHqLJIFNcI8JZiysqEICAxgkORGMWkmO8Bv6JZClSpg0F+l156adwXWTFOP8ZXDmM0ZmOxaRd5sz7UW7PIVQaMyplAHunSLvKBXJBlfbuyXfSPJQERMG7BtTYLsxOpw7hsBa6vqneykuSRBCHXwCiQQBKEgQkCQKC1ARzmcSBW9jYYBUukzyECFBo3U38zBAHBsuU1AKXpAi2fWYdXXnllfCf9U7viC4CT8tRly+q+OgOEATkLAk2XyX/fffcNUiDlU4yAe7knUmM7beAOOMUmGIsCUwiK3TG1438aN+1d6qnKlspKA1oWDICPHMgYkWkiVZWlSbqoz1lXihVEDIvzER81KXyHHCy33HKx6RY3gvFLSxUMKy219tAHlgquDf0QD7Pxxhv/iyZvnO7FbVHcIiwdNtMio9qNuNzPZ+6nn3bjRIJsQ05m1rhxkCVSwILGGqE6qM9HOznu77lPF8NofSP26LiTIDRGEGh9zVQa7NHlMnVYrQYpWm+0XP55mqpaEX5zAQA/AL399tuHaR0QcwMAffUgkIn6TBJt0eCPOOKI8LsDMTUetEFLF4S49dZbh2bPTXHmmWeGlgzQkTzXAUCxBoCbiR8x0B+atf7ut99+4VKgVdvfgjavP7R47gMExj4aYhj48BEBoA+kERwWKH+zDAgqRDjFszjPZ/rLiqEvLARITO0BjIEyNwoZKVDF3F/SZcu5rBN29txxxx3jfvqOtIh9UCuDtcCBkJGpzcPMg3EiCtwqSAr3BwuJWANj5vogM9U9jYt7IwlCWhB6/R2X4/vfYKzzzz8//KNeEgmC/7csmGhLIaEkCB9/XFolCFopNSG4F4CcdcctQGsFcqwHtFvAzv9/5513BtABplqCoB1+cj8CG2nzF110UZACrgAuCqWgS/YJUEMofDZ27NgwwZcgRQWtuB6AOSsAN4N7i3tANhAXBarETABWcRP6SrP3tzbFIShrDeD1R/8BMVeAsSEfrBSl1DVTPRAG4OIZDjvssLAAOK+eICA4YhwQBPtocHkVglDiEPQHwSgEgUtFPwQquqYEHBq3uAmxHaw1LAgIAfBnaUEQ9JdVhpsBMSF3sjjooIOSIEwDOdKCkLDaUxJIC0JaEFpZ0IMhCDR3WQVM8zRbgOUHGHED0JCBJwCkrQNm2rkAUZ+XmhFcELRaGrxrEARk128mfGQAsXA/mjzSgQALSuQq8DmCwLcuTgGIslqwDOiLuATBlOIVfCaIT/AfsiDGwX2dTyOfOHFiACorhEBBpEecir7YKMv5DsDMYoCMGB9gvvrqq8O6IWCRBYSpv1ZD9zdyhCSwEIizYOFwaB/Rcm8uBGNCfpAjIM8qwTJQdu90Dfn5TsyFbAwyRXD0U+lvxMEYWRxYd8wBcqEfSExaEPp/YpIgtPI2yWuGrQSSICRBaGVxDoYg8JUDYwcgFytgHfJ9A0ugXiL/acFAkeZNEwZW/PhM8gLngJZzuBdcA2DFMgBG7QJSwXeAUEaBQEZASqsv220Xl4L+bLHFFuE+kCoI1FmOuBiY2REFPnqplDR4lgqmfkBLUweurA/6BJSBKZIgRqOkVwJ3pENgouqYiBGyxNLgPkiC/nCnOAQeIk3IkRgEFhLgjvC4L8sDMkKz547xPTmweuhHkV1tcCK3xg033BDfi2dABMyJzA9WDwQBaSgbg7EgsHogRPqHFKWLIV0Mrbw38poRJoEkCEkQWlmygyEI0hkBDa0dONGYrUP+eVYFQYQlW4F7QNzAGmusEcAFOEs9AP12LRAG9ja8UkRJ8KTYBoRCu9wXgh8BvjRJlgf3lR1Bc2dZEDCIPHAfAHemdgGETP4CVGUgIAjaQEJ8p23EgUvBD+uEGIWyrbY0R+NARsQ86DcCBJwLQSBH1oRCEJAK1yuF7QDmvtc/G3AhEYDbON1PZoX+kgHXAMKAwLDMcDkgGPWHNslDWiTXinRSskcuFlpooRirtEgkTByHGAWpkgiIdFC/kyAkQWjlvZHXjDAJJEFIgtDKkm2VILgO0AuOA+ilmE/RcEtOvz7RpMUS0NQVJGJh4GOneTOlsyqIE6DNsyrQdLkiALL6BawGpYIhoASiyAFgZYYXuwC0gaq4B2Ao5gQAM7EjDywEQBnQ77LLLhH8R9vmk5d2KD5CZgvwFktAu6bZIwKIDteEdvVZbQFZE+IOaO7a1D8WD/59mResDWSgnoLf3BeyGsQflFoN7qUtsit7dyADyAoLCNeKcSEWCFRfB3lonzWFJYarg9xYClhc9KvMhb9ZOpyrH0jFYEt1t7LmRsI16WIYCbOUfWxYAkkQkiA0vFhqTmyVIJT6BUCMNs/3Dez7Ovi9pdcBJ+4CQAzISslimi1NF7A5h6uBGZx5nBbOf15rWi/3KLUT6usI6AvSQKMGyjRsfwN890QAgLDPAKR2nO/eAN31+sANInBRuqQxuJbFgbkf4Bs3Ldyhf+4lEwPRof27rlQrJBsWAmRJtoW23BuQi79wP234DNHRV/1iJdAH9xvoIFtky7UOxAgJqpeddslV9kVaENKCMNC6yu97QAJJEJIgtLKMrZsTTzwxAuT46UdDZcm+NtRqRXb115BlreWkHnwLUCcot0PanW0jLQidlW+23mUJJEFIgtDKkrNumOMF0HEX0ELzSAmMdgkkQRjtK6DHxp8EIQlCK0u6BBUKBlQcSOpg/c6KrbSb16QERrIEkiCM5NnLvv+LBJIgJEFo9bHg5z7jjDPCiiCaXuQ9X/locDe0KrNevQ45TBdIVSVB6NUVPkrHlQQhCcJglr5AONUDRf0L+hNUKHgwj9EjAXOuyFJ9GezRI4H/G2kShNE46z085iQISRAGu7ytIRH1KgiqB6A4UV/ZA4O9T14/PCUga0OBqPqskOHZ2872KglCZ+WbrXdZAkkQkiC0c8klMWinNEdOW+le+OdcJUEYOWs2e9qABJIgJEFoYJnkKSmBlEADEkiC0ICQ8pSRI4EkCEkQRs5qzZ6mBIa3BJIgDO/5yd41KYEkCEkQmlwyeXpKICXQjwSSIOTS6CkJJEFIgtBTCzoHkxIYQgkkQRhC4eet2y+BJAhJENq/qrLFlMDolEAShNE57z076iQISRB6dnHnwFICXZZAEoQuCzxv11kJJEFIgtDZFZatpwRGjwSSIIyeuR4VI02CkASh2wvdmitbNk/r3nLr/Xz00UfVBx98UM0888zVJz/5ySjCZHtiWxIr7axyY8nDt71xf7UYfG57ZFswf+ITn2h52Nr5+9//Hn1y/3//93//l7ZKH93P9tN/+9vfooCU8/2efvrpox8O59pamkw+/elPx9bNylg7T/Eh7fdVZ8D57733XrRhi2jX1R7u/Yc//KH67Gc/G+3altqW2eSlT0W+rulLbr6vl2XZ5rp+/mr34TA3tqO2fXSRs/Eb0xe+8IU+5969emEvjyQILT9WeeFwlEAShCQI3VyXgOW5556Lqov1gFbbD+sSiNoEyvmXXHJJte+++0Y5X8B57733Vtdcc021/fbbV4sttliALfC9//77qzfffHNqU9r5r//6rwA6APmXv/ylWnnllasxY8ZMBehGxg9s//u//ztONYaHH364OvXUU6sDDzywWnTRRacCOAKjL+55/vnnByDvt99+sV/FrbfeWu28887VRRddVK277rrVSiutFPtW6NeNN95YvfLKK9WOO+4Y477pppuqm2++udpss82qFVdccSp46oO+OADuIYccEn8fccQRQZ4chQAhDz7fYYcdqm984xvVq6++Gv21Z8Z6660XbSqTrA933HFH9fbbb08VBWCfaaaZggTVkoSlllqq+vKXv1w9+OCDU/thTpZbbrkgHs697rrrqgsuuCB2+XQu8nPttddWjz/+eLXPPvtU9913X8xD7THHHHNUq6+++qCIWyPz2OlzkiB0WsLZflclkAQhCUI3FxwwvOGGG6pbbrml39v++te/DvACRltttVX1wgsvVNdff32QgZdffrm66667AnQQjKLRLrTQQtVuu+0WwIo8uB5gAjjnsD7QxGm23/nOd5oCI88IMnLFFVdMBUsWBBaMop0bjHvuscce1bLLLlsZA/BGXuxTcOedd1aXX355deihhwZQGoOdML/61a9Gn5wLrJEg5OmYY46J/tL8Dz744GrOOecMIjFx4sQAc3/r1/vvvx9yZBEoskCAttxyyyAcxx13XMgQKUBonnjiiWrWWWcNsqMsNpkhYSeccEL1wAMPBNlBLHxPpo888kgQBWN76623ql133bVaeOGFq7322ivAXD8QM8SnEBftTJ48OcYy//zzV+edd141++yzVy+++GK11lprxb4d9vAoZIusyIFsRnq55iQI3Xyb5L06LoEkCEkQOr7Iam5gvRWXQb0WqaY/gNh///0rfwMYWq/NoIAZkNt4442rM888M74HgrfddlsQCCAM0Jx38cUXhymblkxbB+Z2m5wyZUr10EMPVbvsskv1ta99reFdJ/WZBoykrL322lNBzOfF9G9MNP7x48cHsbnyyiurq6++OjR2/QKY+uXe+vbUU09Vc889d5yrT8cff3yQC2Brh0xyAMZHHnlkmOpZFgrIIhfuO9tss8U9/D1u3Ljq3XffDcBmcfiP//iP6vTTT6+efPLJap555qkWX3zxkNUWW2xR0dZZLJ599tno39e//vWw0Pjs8MMPDwICtNdYY43os3lwj2OPPTb6zyrAEjBhwoS459133x3yNA+sK9wJ5naBBRYIAoKkbLvtttFGrUWCxQE5QZzMG5KUBKGbT2PeKyUwgASSICRB6PZDAsSACm24+J35wMeOHVutv/76AYzM7D/84Q9DSy9WAdonkHGt84Er0Kc5swosscQSAXLcDO5BG37jjTcClOadd97qnXfeCc146aWXDsBlVWh07wjgTwP+yle+0iexcD+uDab2WWaZpTrssMOCmGy99dahyfthGSi7XRoHcATsgPyZZ54JwoNI0MT33nvvIBbGd9JJJwWZ4KpwPdP9a6+9FoTCtdoqfyMTQNy9yeHCCy+s1llnnZCn63xPdjR4smfhYA1g0eEWAP7AncUCmTjttNOibaCPbB100EEhb6ThRz/6UcjX/LgnWSJuxkBeAJ8sWEDI2xiRofnmmy8sQEgIOTmf1SIJQrefxLxfSiAJQstrwEv/sssuq375y1+Ghld8vC03mBeGBIqb4ZxzzoldAJnRmfCZxgEqrROgAQxmdmZuQPfd7343QB5peP7558MsXbYY5nenJZ977rlxLe26gH8JtvNbTIA2kJDXX3/9X3zhfU0RDRvYcg2UQ4wBrXeGGWb4mNbLavH73/++mjRpUlgDNtxwwzDrG4ffwHr55ZePMXNPPPbYY6Fh+9+5/PNAFXEA3twx4h1o2zR2wM/UjziIYaDhGxdy4VokCbgjAvoBnLk8WB/IsFhdEB2uBuMC9GIk3AsBANgsA2TE9SBeQ7AjAnTUUUdVv/vd78JiwxJCDsaGrHGV+JyFQ7/OPvvsmGsWIQTB+PV9m222ifZYhlgsEL4kCPlySAkMQwmkBSEtCN1eloUgIF8nn3xyADqgWHDBBT9GEIAVUGFpoIHTnpEI3LEpAQAAIABJREFUICngb4UVVgjgcwDYVVddNdwXTOmAqD7y31p33gYbbBCAq31AOK1DGzvttFO1ySabRJvAjLWC718MAa2e66NkBNCur7rqqtCWERCAynoBEJ0L1MUEOE9/gDGiRKOmTSM8+mUsAhSLSZ9FQRsAuGynzZzPGuBgDSgxCABbYCJi9Ytf/CKICmsAEsbPz52AXHE9sAr4DEHwN+0esZAVoR/ORYwQAeRGHIi5YHVYc801wxKBOCB2P/nJT0I2iDQXCwKgf7UEgaumzAuChBwlQej2E5j3Swk0KIEkCEkQGlwqbTutEAQmb5HrAEVgIcCptSAAqJLBQFvn/2eWpikLlKO9M7UDTmSBZuozQCegEDDTlK1x5/DHu05kP3Ci8erLQAcCg1gwpQNZAYSuBdoyAPj7He7tOy4C96JBuxfQlXFAmzdWZKhkcDDnsxAw7xuvgEDg++1vf3sqQTAGIOteABnocleccsopQVRKBgcy4V7IApeA+AQBg5tuumkEBroGCUN09NmYkBiWAuMhM24c52lT/INYCWNwb1Y08vM9FwPyw8UgNkN8gtgFQaQsIAic8dcTBBYchMt8nHjiiUGKkiAMtALz+5TAEEkgCUIShG4vvZLWB+CAX3HdSP1DAgAWTZqLQaQ8DbakOdL4ARdtlubObM5UDlS1QzulATtH7AEXhsA3Gq38fMF1QK7ZnHugL6CPtvzjH/84LBUIAkAFuu7r/ksuuWSAKdA3vkIQPGfcH8zvLAbaAaau/9WvflUdffTRQRAcTP76jTABfeM74IADYhyIhhRDhIIrgbnfWIAy8oQMiINgRfCdPnPNsFCQO3DXB2TGvREFAYZkzPLCysHVgBi4tziNYtnQRwGO+k2OZC41EmHjimCVISfWCC6GviwIsjnEOSAOZIgs+QxxyBiEbj+Jeb+UwAASSIKQBKHbDwnTOKAS9LfKKqtEYBuzOcCgUQMK4Mf0DXQBIoAHSoBNABxiwNXgWkDG9QBAAZS2nn766SAJgBF4A0IWBv74kpoIyBs5PCNiBQA4zZq/XYS+9D1ZC4INi0UAoZFySGOvJQjuo0+sCIAZQPofgeB/B76sBK4DmMbODVBLEIwFyQDIxstVQXM3PgSCywY4i5nYc889Qw4CPbklkBhujyI3c4AoiZkgD5YP35O378iGmwMZYL1xb/ENyBvrhDiRUl9CACXSRAaCQLkRWBAQIfNhXOSETJRATqTGfbg5Sp/0NbMYGlmReU5KoEsSSIKQBKFLS+1fblPSBAEFF4P0PiQBsPH5l9REkfr86IAV8NCMAZjiPzRqQAuk+Me5LZjQARXyAGSBOqBjUfC3z2nKggD7qlBY39Gi6QJJmRaXXnppgJ3/aepIQWlHHxERga0IApKiDw7nIxU/+9nPoh/aApzcKABaCicXBo1e/8hHfYHiYkAqmO2BvVgGB9Li3giGA5niNkAgZD8UdwCrAAuDQE5tIiX6x7XgXqUiJCKl0JEUyEUWWSTM/4gZYEdABFKy3IgdENfA5SFOBGFACFgizJ8gUfPJmsOK4Z4Ihr4W64a+I4TmBVHhehjpgcBZB2Go3iZ5345IIAlCEoSOLKwmGwX6pTofkAJCghJpr/zoQHKuueaKqHumbKZ8oIZcCJoDvtICnQtwmLEBqbaAEq2XKR95AOgAVmxBI4dnRKwDnz1TPleFe/oNtAGifrgP0sIMz2QOOFksjKMczmUhAIzqDDDh88ezUABQxMNYfa5t7gBjkJqJFPnMfWjrXAZk5n/3QTr0VV98d88998T54jMAt2vIjZbuPNkciBOLCNJUsj30xXfuqZ+KHTkfkZEdweJgHPrlnmXsiBoZa8dcsLKQkT4iYwIfC5FifUBaEDnzyS0i/qIRwtbInA3VOUkQhkryed+OSCAJQhKEjiysFhqtrUlQCxS1nxerQ18ZCj4rYNUf0PR3jxa622cNhfp+99UPffBTW2q6jKu2+FLpU1+f1X7n72mNd1py6attpIIcgX+zgF2bWjqQTJGYEgvS7H0Ganuovk+CMFSSz/t2RAJJEDpLEATVedkKNPMS5DenlfFTD2ROpRUz0co3L5HyeuvFyrRLo6X5lWh8GnVfL1omcho67Y+2lkdKICXQGQkkQeiMXLPVIZJAEoTOEQSyFd3NvC3wjsYowIwfne+Z39zB3Mr3rAAQrU2AHtMsM7VoeMFkzkUoBI7xu/O1M0kzD7uWyVfke61GxterPaZcufnMvEhE/YFUaIvPeVobKA3REs3bpgRGjASSIIyYqcqONiKBJAjtJwhkCuxp9lK9gLeocj5vAW78wSLQgTUAZ10Q5EW7p+mrpa/IDc2f1o8QIAui06XAMQHLQedP5hdWDMc9a3242hUw5xxBYiwQZYvf+hEjBauttlr4gZtN/6ttq9Z838jay3NSAgNJYKS5HpIgDDSj+f2IkkAShPYTBKldIsFt98t6QMby+qX0SSUT8AaIfS6ATYqYojEizxWbKVXwBH0hEn4LOJPKJoCt5KkLZBOVro4+siEYTdBX2XLYPRW/EXTGKsEl0Zf1gIVCBsBALo/+JMWFgqQoDiS4rX4TphH1QGRnh40EEGFWMWmkI4UoJEEYNssnO9IOCSRBaD9BAJhSylSZk9ImlmCjjTaKHHdgLa2Mti8NTSQ7t4FccZYElgJAL62sBIp5UZon0fciyxW0KSVuXS8SXYlb0eWqCEp5Yy1ggbBTnhRC/9fm6xu19rkwxDG4phWCoL9K7CIHUttkD9TGS7RjjWYbo1MC1ryKkghsEoTRuQZy1EMsgSQI7ScIWhRXoAyuXHAuBgVv5LCzICAICv4oXetv8QVK15YgQ1UCATvALpYGlghxAlL3pI1Jh/PilFIHoFXd02bZcIcrw54D9ioA/q6XClcbY4Ag2PRH2huXhZiFZg4EhOXDmBTQ0TckZTBuimbun+f2vgQQg5FCDsxGWhB6f02OqhEmQegMQaDVq5qHJJCx+IPNN988LAhFyxZnoOAMIqBsLWLAlcBKwPJQqgO6HpAjA4oHKXLDdSBmQJaDynViFRTkkZ+v0I76ASrTAX2WCoVv3JcloZCEkgvv8+9///tNWRBcK8/fPVTzG0la3qh6wHOwXZVAEoSuijtv1mkJJEFoP0EgU2WEWQdscwuk1c5X8pZ/XmyCWAHmU9XjBCEKYrQV74033hhFchT8EZQocFF74hAUn+GK0AaNn+WB20IgolgERMF9xRMAbGVsWQlU9WNFsJGPYMT6TAVplIraCGxs9NAnVgruCxaMvuIbGm0rz0sJ9IoEkiD0ykzmOEICSRA6RxBkD9jOmIWApg24VeITbKgegnr7Ku9xQShFKxaARUBMgqA/sQeq7AFwoC6lUQAjgqCGvxgHZMK2wywVPnMv6Yxl8yIALi7BNQiADAnXiGFQpc9nNklSNrcZ14B1I7hS/1gQmiEX+eilBHpVAkkQenVmR+m4kiB0jiDY7W/55ZePErniBtZff/2ok0+jp9krJ2zPAaSBBYELgQ+fz5V/X6qk4D8uA+cA/8022yyCFVkQZEAgEywU6iL4X037khHhfuouIBrcD7b/RSoEE/otmJDbQ2yDa5sBef23z4BYCzvyNUMuRumjlsMeBRJIgjAKJnk0DTEJQucIAtCXkSD+gEuBVQCgymgAqACb2X/ChAmx6Y5aCIBcHILMBzUR7M43ZsyYcBewImjPgSAgH1wLCAErhDgC5wlwvP766yNw0L0FLrIgIArIBdcEV4Q+ISPcAzbhcZ9GCyUlQRhNb4kca6MSSILQqKTyvBEhgSQI7ScIWmTCZ94v2xkrjywoEWCXgL4XXnghbg6wkQVBieoclIJDAg1rCUKJ5kYGVGOcd955w7qgXRkQsgicg4QgI8gHV4bNgcr3Nsxh0VCrQYqi3f5YK7gepF42eiRBaFRSed5okkAShNE026NgrEkQ+p9kGrcSxQIGlUzu1F715sC9aO/1G/hM63NkoBHTvvbbnSqWBGEUvBxyiE1LIAlC0yLLC4azBJIg9D87QFAgH5M9k750wDz+KYHBEgTXW3sDuTTKFsQDyb0QoP7KPZd23Nc963ddLCSqXUSqlpT5u+wy2d94EUFH6Vu5pq++9iWLQiRL/9s1joHknt9/XAJJEHJF9JQEkiD0P51kY397wYb8+auvvvqAgNZTi2MagxkMQeDekJIpRVPa5quvvhpyrgV3wCjNU/qloE7FmNyz/mBBscmUVE/tTp48OWpAlEObAjy5elSnnDhxYgSLCswsIKquxLnnnhvxHApO9Qfifd2/vj/atIOnMQlCFfPhbwGdUl59Vgve/hYLcvHFF0cNCxkuSmQLTlW/wiZfXEkOcSmqaMoccYg34U4SX3LTTTeFrGSwCFpVS0NWTB7dlUAShO7KO+/WYQkkQZi2gL2AS6EhdQoAkTiCgTTfDk/bkDdv3bCqALdmsxhcc8kll1R33313uG5uvvnmAD4xETIsZFP4W4aFWvz2mpCNUQ/Q2rGvxdprrx0ErlR2VOa6HNqZa665og4EoJZ6ivDV1oMAsMZgHwkpo1JP6w9t2yjLuX1ZKQC9YlWCTWWsnH766bGPBlIJ/LmqVlpppUgxLYfS2oiKbBVBpcai4qZ2yMR1+it+RNyIrBPtkwOSgGzYrOuDDz6IipnWqjRZga5SaLWTR3clkAShu/LOu3VYAkkQBhYwjVA9Ay9jAYUARzriaD4AoiBMQZXNEgRlny+77LK4HiBrQ6VHdRVOPfXU0KBlZAjaRMpkc9DyawmC+wPWCy+8MPaYkAmCtAFJxMFhbcvwAKaFIKhuKbukliA4j3WBts6NpGZFfeEnBEHVSzt09ncAfG2zZCijzZKxzTbbVKeddlolSFUqaTlYTJBNP+pUkInrkADjfuuttyKAFDFgOVABU6EtFTbtu4E0bbzxxpGuilwgL1JoZaywVCA5uSdG95/QJAjdl3nesYMSSILQmHC9vJ966qkolQxMvNBH+0EO3ADNEAQADjBlbZTNqGjaSJfP7VcBFO1NAShZEIAiEGW58V3tgSgwq9PUmdyvueaaAE/r2g9yINNjWgRBe6pZsmbcf//9QVrcu96PX+Im+pt35yMp7ssagdjY2lufuBhknyA/dtZU8ArAc2sgR+6LULCGAH2prggT9wJrwPzzz1+NGzcuyne7HmFCrKSr1lo09IGMyt4YGYvQ3ac0CUJ35Z1367AEkiA0LuASOFbAp/Ere+9MMjjmmGOadjHQpMUeIAhcAbRdJaTt63DOOedEGWogW0sQJk2aFKmazO/1gaIIB/+7VE9auxgDbakOCSgBJBO9japYgPqyIJgde2eIhwDqKlYC5VqNv9kZRDi0xRLA7G/fDERq0UUXDRKA9AB8ffO9/7kYWEJK5oxqmAiYuAQFtVhK9F9lTXEGSAxLDEtBIQLui1SwXGT562ZnbfDnJ0EYvAyzhWEkgSQIw2gyRlBXBhOkCMQAGy2ZCwDgAXnuAj8i8rkYmNIVcOLT5+JhZndubYaAOg9AGAFQrpobADADyGJtEKwHNO1n0RdB4JI45ZRTgmQI9LMFNnBmlai3WDQyRfonsPKss84KAoQU2H1T/IBqmYiCMQJ5VhjEhtVAP4xRoKR4CecgK9ddd11ci0yISdAvJEtfxSmopqmf7suiQEZcDp1Ky21EBqP1nCQIo3Xme3TcSRB6dGI7PKzBEARAaKMnRaC23nrrsAoAZymlNrX661//GmZ+GrYdLrkJnn/++bAAIAT+5k5wnX4ARyBZttCW8VAi+MUMKCDFOsDvX08QgLBYCO4FwMvyYG8Jfn+aO/dEswGp3FHIARBHBpACVhBgLqvBZ6VYFsvFYYcdVn3rW98KcnDllVfGjp3AHcgbEwsLwsJagiAot21TL+4KwZtIhMBOzzKiQS4sIEkQOvwQ9NF8EoTuyzzv2EEJJEHooHB7uOnBEgRg6QfIbbrppkEQAD23BV88C4LPpSdyOwgKZSlgCRALwp+PRCAAZ5xxRpAJ1SD55pEIh7Ut9gBgAltBf7UEwTnaEpRI6waqwFxhLNcBZkGHrne/Evw4rWm1X4b4FPdBArhFZFIIgNSePrEOGCfwR1pYPRAA90Fkxo4dG3EVdvqUNaHvSmzLViAX5IflQWlsZMg9WU1KjAbLgrLd6WLo/gOYBKH7Ms87dlACSRA6KNwebnowBIEmrO6A6Pttt902pCQIkWZMk1YPQMDi+PHjI2sEERDQR1u2/4QMBO4JgKqIFZcFUiCoTyYB7V99BEAtWA+pANi1MQj89zR8rgs7YdLite06/bP5FdM+kOcmQFJkCfSV4limWRwA0JZyyIXCLcAqwIWAXCAJ2t9jjz2iT8bHgsGiwMoB+FlR1GlABrhdfC89kssESWJBEBvhb+RKX42XPFg7BHuyUohz0I8MUuzuQ5gEobvyzrt1WAJJEDos4B5tfjAEwZqjVUsfBYDM+/aBEIiHGNCaBd7R4mnugJI1AWizIih8pA1pjgBXQKMDQLJCnHfeeZFtAjjdQ8aAbAjBi0Cbts4sjxQgDfvss0+4KABrOVgmEA4uABYGZMP+GgMdCAqXxEMPPRRWAIGXxsBdIWMBYLNauLcaCICcNQERYlEA+IokIQjGbO8MbchYYBVQk4NbBnFhddEvKZiIkuJIikaRifRJckqCMNCMtff7JAjtlWe2NsQSSIIwxBMwQm+PIBxxxBFNZzHUDtfao/2LAaD5AjRkQPCeYj9M5cAWiQB6zOm0/mLqRwYAISAue1JoU2qhH31kZeCmoG1LPVSQiaWABi+Lwme0/r62ukZixD/Q7puNQ3BvY2P1UPxJmmJtH23UhZCwBkyZMiUyFLg5HIIynatfDoGHyA6ZyHZgUUAoyoEkcNdoQ/0DpCCJwdA8WEkQhkbuedcOSSAJQocE2+PNWjd858zzNOC+ALZREdRmJRQTfn8AV2/ib+S8+n0XugmeA42nLxnVyqOeUAmARB5qN+lyPtLks8HMQ6Pzlef1L4EkCLk6ekoCSRB6ajq7NhjrRsYB7VeQ4Kc+9amu3TtvlBIYrhJIgjBcZyb71ZIEkiC0JLZRf5F1o/of64F9B5i8u6mZj/oJSAEMSwkkQRiW05KdalUCSRBalVxeJ0hQIKG0RBUA55tvvggurDV/p5SGlwSSxHV2PpIgdFa+2XqXJZAEocsC76HbWTvy+FUhlIcviE7UfebfD79JRgwES8rWSJLQuflJgtA52WbLQyCBJAhDIPQeu6W9BKT1SQkUtCjiPo/hJwEln9WdaDYjY/iNZPj2KAnC8J2b7FkLEkiC0ILQ8pKUQEogJdCHBJIg5LLoKQkkQeip6czBpARSAkMogSQIQyj8vHX7JZAEof0yzRZTAimB0SmBJAijc957dtRJEHp2anNgKYGUQJclkAShywLP23VWAkkQOivfbD0lkBIYPRJIgjB65npUjDQJwqiY5hxkSiAl0AUJJEHogpDzFt2TQBKE7sk675QSSAn0tgSSIPT2/I660SVB6MyUk6udAD//+c9P3UDHhjqvv/56bOvrp7/DToDOs7+BwkPdKmyjz7ZHtsvgjDPOWNkY6H/+53/+pZuf/OQnm66WaEdGWxn3dxijdlvJ0bdrokJNZK2So8OW0frvs1YrO7peTYf//M//rNR6MJ9KSg+07wSZmT8Fo+wmOa35M9d2lLQ25phjjj43WzIW1SoVOhro3rXydY1to+1caefLPDovgSQInZdx3qGLEkiC0H5hk6mX/gknnFBttNFGlQI1b731VmX74LPPPrtaZ511qq9//esBxLPPPnv8vuOOO+IaYAJg7r777gA32/cCTW3OM888sVVxMyCqcJEtgv/+97/3O1B9WG+99QIMjz/++GqhhRaqVl999eqpp56qJk+eHNstl2O66aarNt100wCcBx544GOgX4CwdsfFr3zlK9FnAD5x4sQA7fr+a9+2x9tss0312c9+tvrjH/9Y3XXXXf0WXAL4Sy21VJR2dtgG+swzz6x22GGHkJd7XHLJJbGd8wEHHFDpc7MH4L755purp59+utpyyy1j2+brrruuOvHEEwPI60HfGMq4//rXv1aHHXZYkInx48dPJSjG7TpytkWzAzG46KKLKmWrd99999jq2uG3LaqthcsuuyzubVtrn/V12NLavGlHv//0pz9Vzz//fBC+5ZZbLsiK/i2zzDLVEkss0dQaalZ2o/n8JAijefZ7cOxJEDozqbQ+IEG+G2+8cXXSSScFEQAItFwvftrg4YcfHtr6+eefXz333HMBIMDmxRdfDGAD3oUgjBkzpvrud7/bsEbs3m+++Wa12267VTPPPHOAMJICNBAUQKv6ISA79thjA1APOuigEAgQ0a+f//znAboIgTEBHX3Wz5/85CcVMCykBrBrk3WkAOiSSy5Z7bLLLtUbb7xR7bnnntX8888fWnXtoVwzwDzttNOqWWaZpXrppZeqffbZJ+RUD4isEMjWXnvtVa211lpR6vmGG24IQvG9732vWnDBBYNkHHLIISG/zTbbLPqOXGm7UWsMgoAgnXXWWXEfskHa7Fz5xS9+cWr3y9gfe+yxOMeBAABp8qsldIssskiM33fXXHNNrA0/yJP1wFpUyJP52WOPPULeiCaZfuELX+hzserDd77znSAQb7/9dnXggQeG7MjUnLinbaCtr0022aTaYostclvozjz2VRKEDgk2mx0aCSRB6JzcAQYN3kv/0EMPDQ1xrrnmCpCi9dIKbXYEcAABDfujjz4KsHjttdeCQMw666xxvRc+gAUijR7mFpi6joVg4YUXDq0fmNKsASdN22/9YGl45JFHAmz0CaA4X3lefXnvvfeqCy+8sDr44IOrr33ta6GtAlIHQoMEIRY0+QJ0NGGA7Xv94EYoboAyDsRj+umnr0499dQAcefuv//+1Y477lh985vf/BgYs7IgD7vuumv0E4BfddVVMQZyA5J+Lr300qlkgBxcA+gbsb44/5577qmuvvrqMO3rGxcDMsRcbwzlINdll1025Eh2Dv0gK4QQMTPf5ITcrb322kHSHn744YprxHxaB8AcwaH5O5fVydzvvffeQYJYLerJkn66F1LEUuFAxI466qiYAxYo1gnjNl/mjQWBBYhFoVGy1Oh6y/OqJAi5CHpLAkkQ2j+fLAAAnx+aiR140XgBSwEXlgR/2yoZ+AJFmiRw8B1wooF+61vfCq0csNG8aYMAq5GjWBCAKa3W/fzmbmBNABAffvhhmOsRGFs36zdg4mJAVi6++OLoEyCihfLHO5c2XA7j/eEPf1j98pe/DCBm7i7m9HKOdmnErBFkUnu88MILAYw2fSoEgbwQCz/lKOb5V199tfr+978/lSAgUz/4wQ+CvDzxxBPRX4CoL6wl+ovkAOdGCQLXgv0ljNv4uBi0u9JKKwXwkw0SAWxZiHzHteEgY/LgAtl+++2nArHrzIFzf/rTn1YPPvhgrIvbb789xo9AkgFgR5DMnzG5N1KFLNW6cbSDwFknrDrnnHNOuKqQDQTAWJEQ97UGERy/bdiErNUTtUbWVJ4zbQmkBSFXSE9JIAlC+6cTwLMGXH755dVqq60WQEZ7Aya14AgsAD43ABdDOcwJEPeCp4EXUABUAGXOOedsSPurtSBssMEGoZXee++9YUEAYACfhuk3rRPgIQTAFegx5wMu/bv++uvDXE8jps0ah/4Vfz8g078111wz+rziiiuGG0Pbhaj8+Mc/jjb7ikGYaaaZAvSBIxfDvvvuG9e7V+3BasHtQQ7FgsBNAlzJm3ZurOS37rrrRlyHtnbeeecgLo1qzfpcrCPuCVCRF+3Q+lkUkJINN9ww3EDGXzapIhMyQ/xYYsp4uQiQNaQMWANzbqNbb7013DdiMJAB4xaQiKjpwxFHHBFyA+y18R2+cy3Shtzpk/lknULGrrjiipinb3/72+H+MLcrr7xyWDKModXgzfY/Mb3TYhKE3pnLHElVxQsHONGY+DprzacpoNYkUCLTBc55eTPxAj8v5aK1OQdYAV1mXxHyNEnAVg9i5ohGuP7664f1oBmQA1RAyfWu5fJwL6ZywAVAmaiBEHBiKtdPrgJgYz3QogEYcgDcVlhhhTB96xfiIPCSdYMFBAmhwQJVsQ8A8Nlnn422SywFqRagqx2Lv42RDIAv2Sy++OIfmwQEQGwHQlAIAteIsekbNwoQPPfcc+McW1BrC2AK1mtUdvUWjgkTJsQ8kZc+khlfP8uE4EDkqlgQHn/88bBk0NyNnyXBfa0FlhfkBpmyBgA/QulAppArcqLpa5/F5eSTT472zEt99gsLCRKFBPmbq0jcB4L3yiuvhBXEXHLfmEtrwfeNWFJaW/2j+6okCKN7/ntu9EkQOjOlXv4i3oEGrVrQHC1UDIJD+hkCQdsFdPz9tHrWAdq04DIvca4A/mwa4HnnnTc1QM68DQR2zqGNA0papHsLvANg7quPLAq0TGZ4Vg8BdEjMAgssEOAiaNE1/mYFQWKMafPNNw83yE033RRkY6eddqqOO+64cIkw5Qt61G9xBHznCAJXAi0ayCENiIB4AZpsSXMslguyQkxKVH+ZJZ8hIEC/EARtbbfdduHLZ/oHljR6pNd55qGWIPRFTvpbBUz0wJXVRVAmjZ1LQyaK/xEl1hJjAPbiENzP/Oo7mbs3ooIAIAa+81u8gKBHv13PVcBCQfbORXp8zo2gD4gG8lNrUfI3eZbsDWvE+QhhIaFkVtJVBU1ye9TLtTNPwehrNQnC6Jvznh5xEoTOTC8AELQHTFkQ9ttvvwD3knJHa6Tx0bL5+/noaX+0S4ALYIGLqHO+fWRCvAItnqYOjIqZv78RAAjR9dwHLAQ0XRH/kyZNCtM4sBeExxQulY9lQB9E/ANuhAXgIwfaogEX0KMJCxCkSRsbINV35wuYE00PKI2XJuzwOYBjGWB1YGI31mLq9jntFqlh1mrnAAAgAElEQVQp5nsWidqDGZ05vdaCULIvWA3I9Ec/+lGQD9YSwGj8gJwFQT8BPFeG+ZgWyTKHLANSP/UbaTGf3AMIHCLC96/PLCxkywKDICEnpa4BgsXSwJqALGnjySefjPlEmIolgVvBOhCsKPARUdMmV4H1Qk7WCkJg3m655ZawNFgj5lO75IowcV0hCuPGjYuMCWtQ22I6xDc0U0+hM09Ib7aaBKE353XUjioJQvun3gtf5PmRRx4ZL/Wtt946TNO19QSKSRm4IAJe+Pfff3+8wIELjdVLHKgDM0AAQP0tkI2fGegBatpmXwcSwe+slgFQRSho2aL+memBLTN4CYikvSIm+i71UT+AlCBGQMO6wNQtRoEW6jz3B3rGhyAAUlYDwMu9UYoucUXQlpGPsWPHhqYtMFNcgHGSGd87FwHTOJcM90J9DAIg1lZtDAKgpKEjCsaIIFjXxi8Q0HhlbRiHeAWEgcUDYPdHEIAtcgBwjc81+sl6oa/a5Zqj2SNNxqZtcSasNfpA4wf2XDXaMtdbbbVVde2118acIAEsMTIukBl9RAjEWCBOCIixmXNrRDtkgyQiQtw64hasEfPEeoIkccMsvfTSIScEFBGxBh999NEgSII3rbN0M7T/2U+C0H6ZZotDKIEkCO0XPiJw2223xYuelgooHX2Bke8BP21cQKCXPE2dCRsA/OIXvwhtk8bKjAw0tMeigHzQzgFGX4f2xJUAAlo+s7NcflYCgXWIBQ1bvABQBypIjYPGyQKghgHLgnsCKBkE+gbogH85EASERZQ/8K0FH6mW+o1MADIarjgI9+ZOKYGMfORcMUzwQAwwA7JalwCAq81ikA2ATLE0IBwCCVk+gKOxIhTcNtwjZM1qAaC5VAQB9nW4H8sL2QFn1goa+ZQpU0Lu+i3eAVHigkEmkBDWFLJivaClIy3cC4IXrQXy4o4QTCmeQNChz9zHmFkj/I98IALqFXAHIWbGgYhYG+bO98gKEmRdmQ9rxbX6Y65dw21B1iwV1hZyg8RxyfRXdKn9T8ToaTEJwuiZ61Ex0iQI7Z9mMvVS9kIG3ky7TO4lKr7cEZHwAgfMNEUvey9yYOc6BMDLHoDT3IGlgLOindM6ndtfGV3tM6czT/NrA21t1VdA1K4UOhoyy4Q+ASJACvBp8awNtOBSxZA5vJbwICM33nhjaL6C+Wq/A2TuySIgpoL2S9vXrwJazgeAtG9tkQeNHxiWwzn6Lw6AzIyJlYPJ3/9iHLRHRqwbCAPZAHLnFuDXBlfItPzwwBUhAPK0d7KjmQNgcnUtiweLhX4Zi3uV1ELjJVdj9lmxHpU59Zm/kQ0kAPFh0ShpkM5HnBAz1hZExTgKobIuuJqQJfLlPiFTRKMvIlpLsrTF6pBxCO1/9pMgtF+m2eIQSiAJwhAKv+bWAKG+dkC7etZIQGP9vVxT+tSIKbqcD5wGmz5XCgCV+g+1fWu2X/XjAsjt6GO75qaRdlqZv0bazXPaL4EkCO2XabY4hBJIgjCEws9bpwRSAj0lgSQIPTWdOZgkCLkGUgIpgZRAeySQBKE9csxWhokEkiA0PhHFj1tbza7xq/PMlMDwlkAjrqThPYKh710ShKGfg+xBGyWQBKExYYpEl8YmR18AYql+19jVeVZKYHhLQIClapGDjR8Z3qPsfO+SIHRexnmHLkogCcLAwhZVL+f9zjvvjGhyPxkBPrDc8oyRIwHrWTGttCIMbs6SIAxOfnn1MJNAEoRpTwhLgSI48uIVm1HsRgpgalrDbCFndwYtgSQHgxZhbvc8eBFmC8NJAkkQ+p8NsrFls6I9Csuo/d9f1cLhNKfZl5RASmBoJJAWhKGRe961QxJIgtC/YBU2KlsgqzBYu1Vzh6Yjm00JpARGsASSIIzgycuu/6sEkiD0vyoUCrKxkT0SbNhTtmrOdZQSSAmkBPqSQBKEXBc9JYEkCP1Pp6p7l112WeymiCAog5tHSiAlkBLoTwJJEHJt9JQEkiAkQeipBZ2DSQkMoQSSIAyh8PPW7ZdAEoQkCO1fVdliSmB0SiAJwuic954ddRKEJAg9u7hzYCmBLksgCUKXBZ6366wEBksQassO+9sWxIqu1Af02UHP97a1tT2vbY2lDAoE9L+thuuLD/3973+vPvzww9giuL/0wtqtbUtfbNVr62QFjcp1fW2BO5Bk2xWDIBvCNrx+G3dtvnnpFznYtvfTn/509YlPfCLkZEtfFe70Y7rpputzG19jUOXRtWTu+tpDG+6rzTIHfY279MNc+Nv99NO12nZMP/30H+uDPpL1DDPMEOf2VYJaW+W+A5WoLucONC/5fUpguEogCcJwnZnsV0sSGAxBsB+9PeiBiJc7wPjpT39aLbjggtUqq6wyFQiBnL3sgdfkyZOrs846qzrllFMibfDdd9+tpBButNFG1UorrTQVgADbxIkTq+uvv77adNNNA4TqD6C08MILVzPPPHMQiaeeeirA7NZbb61effXVarPNNqtmmmmm6If7zzrrrP2CbF/CawdB0MYTTzxRnXDCCSGnHXfcMQotkTtA1y/g/cYbb1Snn356te3/b+++Y6yrqjaA7//AoAELSDGCFAlFOgpIkU7oSJcuJHQp0pUiSpUiEIk0QUDpIFWaCJGmEpAiKIjSAoQAogmK/oFffuv71vsdrzPvO/Vl7sw6yeTO3HvO3ms/+855nlX2Pl/9altsscXabbfd1p555pm29NJLx/X77LNPELTr3n333RivA+42cbr44ovbRhttFD/5vnZ9BuP11luvvfHGG7FNdK+oMj9wnGOOOWJTKHjtsccesRmUOT3nnHPi9fDDDw9bfU54Wd3hM7tMvv7662FvVwTox3fBPD/44IMhJqZ3zDPPPO3zn/987eY3ov/kumgiIFACYSLMQtkwZgiMVCC47je/+U274YYbpj2XgBf85JNPhueOFNIjFAHYeuutwxt++OGH21VXXRVkM//88weRH3/88bFLIZJCSggfkR1zzDHhcSPSXu9T24hqu+22a8stt1xsaHTEEUfE9QjUD0HgQF577bVX22yzzYa1A+JoBIJrEfONN97Ybr/99oiCGD/73nnnnSDrpZZaKsTR7LPP3n7yk5+0hx56qB1yyCExZqsmiCRC6/LLL49xLrroom2++eaL9ognQgMGoiU8f+Td9fI33XTTmIfTTz+9ffazn20E3WuvvRaiCZ4wtFPkm2++2Y466qgQJs5l4/rrr98uvPDCsAF+XlNgrbbaaiFEzKVVHt/61rfC9muuuSb6Ix5y/Lvttltbd91128EHHxxzmn2nWDB2B7uWWWaZdsIJJ8Q46igE+hGBEgj9OGtl86AIjFQgaBBp3HvvvbGZkJs6gUA0zDnnnG2hhRYKEuI124VQiJ2H/Oqrr04LSy+77LJBUvfff3+ICqFy7WyyySYhNJ544om26qqrxme9qQykyDvlGbuOQDjllFPCA0dwiHnjjTcOYublIjx/94bJp/fVGI1AQLrHHntsEB8SJk6QPUHENh75zjvv3L74xS9G1INgQpCvvPJKQ8Dnn39+XCf1QlDw7kVgTj755MD8lltuCZwee+yxEAnI3etzzz0X4khbK6ywQvv0pz/dXnrppZgHkRXtEWCrr756RC3YI0Kx7bbbBt7XXXddLOdca6212s033xz2EXJI35gIAVEN9mjPvBIOhIF+RIKkJ4zp+uuvb5tvvnkIhAMPPDBsIgSNnbDQpigP23w34H3iiSeGkKqjEOhHBEog9OOslc3jIhCQths9zxGRuOETC/POO2+QN68W+Z911llBzL/61a+C+H/5y1+2rbbaKogdyWywwQZB9DxlgkFKAbk88MAD4fkiuq5AQJzC24svvnh4pmeeeWYQZXrHCI6HLvKgroEo4akiaaQ8VA91NAKBjewnlu67774g2wUWWCAwETn48pe/HCIKqQu/I0YhdiLrM5/5TFxLWLH/vPPOa3vvvXec7zPY3H333YGxV5h5nzB68cUXA1efwfHpp58OoUFM+N3GT86Tsnj88cfDruWXX77tuOOO7fnnn490AYJ2rbalkHbaaadojwDTlmiQSMYVV1wR4uKAAw6ItqVFCBXXO+/ZZ59tu+yyyzSBoA3zqU6FyDEPxBABCAPjEEEogVA3rH5FoARCv85c2T0gAqOJIPD8EDPPE7GJKCB83iRv0Q0fwfEg1RB4KiJiv+yyyyJ9INqAZJAXMvzGN74R3ilC4jVLGSB2BNYVCIgbwRAInpOAnC644IIQAjzSK6+8MtIVIhQI88477wyPmUBYeOGFh5xmGKlAYKtIgH49Ippw4dULr8NAJIFnTcgQVeoJYHLPPfdEpAOGPHDjQ+bG53fRAI/kvfXWW0NkHXbYYeF58+LXXHPNaIuwgPtBBx0U0ZPEmzAyP0QAcXLuueeGDSIx2tpvv/2CqEUoePgrr7xy1IoQNcSCdAa74E4geC7Fqaee2n73u9/FXKo/UF9CyDhXCoHYkIrICMIiiywS/cHGvIhCwMT3RXQCHhVBqBtVPyNQAqGfZ69s/y8ERiMQrDK45JJLojiQJ4xQhayRujA20YAI5Ld5zfLbPE7XCUOLGvAiebJqBOTd99xzzyhWRJAEg7w1zxrp5KFd4XFPVkRscv0iCXLuGSq3+yFv9dJLLw2SRaYKAoezmmE0AoH3bDzC87x7xMjDNp655547BBNChwtBhOiF6Pfff/+IpAjlI334uA7RImtke9NNN4XHjaB9Bj+HsbF5ySWXjFB/1gLASjsEGe/dOSIJX/jCFxrShqcoDfEiIkRoEW3+1o/vSKY7pGnMj3oGZE4ImG+CUIRIn85H9nCX8lljjTUiyqA/xY8EpUcLmz+Cgm2iQIRJRRDqJtXPCJRA6OfZK9vHTCCIHiAxP8gjaxL8TRwgZ6Qo5aCOYMsttwyy5gUjIyTIwycS5N8JAKSiYBGBIjGerbD2KqusEm3kQYwgQ+chOJ6x84gTwgMx6dvBO0daiJUnPJzw9UgFgn71LzwvpaJeQMqD5y6kzt477rgjfqxqQJyI0jUiBQTDSSedFMQqAqMugNdOaKy00kqBI1FGCPDgETxS9gMbhLvDDjsEbiIXoisKHxHzyy+/HB48MoYL8SUVQ1yJAkgrmDtzIlUk4iDFQYQhe9EPGKqRIDgIBIWVohzSSSIL1157bTv00ENj7L4LohFqEESC1llnnXb22WdHzQg7RXQUMmaxawmEukn1MwIlEPp59sr2MRMIyAh5IBVEmqSoHkGuHJEhJxEG5CN0jlQUv/ld5TtyUrQmrE1I8DK32GKLKFq76667gph43PLd0gOIDNHymhEcb5TwcBx33HFBYnLgSE6fcv9ISeHeggsuGOmIodYfaHM0AkEERIqEaEHkXkU7rEQQekfwoh1EA1InhoxbzQJRIOoi4oGMfSZFIhoBH6F/IfkNN9wwfieKCKCMxkgzEBiWDIpKwBXOsJcGMA+iAwQCwmaXKACskTecpSgQPM9eukYtAbInakQhCD2RBjUM5knhJbwJA2LN3DuQP0EowkMMEE1qJAgGBZOiLGoTpJR8pyrFUDepfkagBEI/z17ZPmYCIQUB7/app56almIQ2kdyGVa3Dl+OGskIK6vER3wEQK6RF9ZGxqIBSB/5iDAgRD8ICCF6//e//31UzTtPeB7J8KBFHhCs8Lf8OnK2FFCoHGE6j0DwOtRjNAKBLQSUqIjfjUeNAfLnmSsK5OETAEhceF69gnSAqAovXFqBvSIGiNb4iSo4wk7UQVQAPvL4cFf3oG3iQdsEgQgCkUCUsEGEwntElPSEyIXaBm3ar0EEhqCQ7iAypH2IEKSfBC5qoG/7XqRAIMyIDYKGiCM+sn6B4DBvohPslGIhCNRn5GO1fTdKIAz121nnTUQESiBMxFkpm0aMwGhqEHTqeh6hynp5d2Fn5GKVQm4SJKIgJcDLl47IPRKEmRGisLt8u2gDbxr58FIRDWHAu/Q+0SGUzfPl5SpyQ3LO88MWoXQhdPl6EYUsDHQ9wlWs17tj42DgjVQgZHRFNEUBoagHjx0xWrEhGsCu3GFQISGSJQakGERfeOH6Z2vuUoi4pRqIB3hJyxAXMEHe2iOWCC0RAUKDQFAvoHhTQagUgf4RN1GAsAkpaQBYC/Xr3xyKYkiHECXaVjtivggMkQ/Cy8ZKxIaNmkQRzImICREk2iCNJDWhnkT0gNDIdAjcsyZEKohgqhTDiP+V68IJgEAJhAkwCWXC2CEwWoHAEqRv8x4eKmJSIIdUugcCcI4UABJ08F4RjsI3pI/QheIVr/G+EQ6yIyCSpNIz53EjL6kHhXRExGAFiLkCQhvy+kOtQxipQDA2pGx5p3FJkaihMPaBthNG6o7cgplXLeIg+oHAuwesiSECCOETECIp6hj0pQjUyhJiAjaiO4SH/nPLZREDBY4EkxSMw2dqJUQF1BHYfIogEOkxR7AmSIyBmBAZ0bZIgaiBuWSXuTV/xJCIiOsIO5suscMqld5D31JVvjtSRmyvoxDoRwRKIPTjrJXNgyKAPO3i5+Z+xhln/Nde/kOFLr3C6e2nn7v3ZZu5RfNAxJ6bLGVBYq8dSfp5be9OiwPZPZwVDK4fjUDIyAoxgriH0zdcEKvrBiLLHCv7fN59tgO7uwWL+Xfv9sqEhmu7z7jQnvN6++xi222HsHGN2gc2OwazV3+uHawGpNfmoX7v6rxCYCIhUAJhIs1G2TJqBNyY5Y6tw7ftrzx3Hf+LwGgEQmFYCBQCUw+BEghTb84n9YgzXy5HLL+dVfWTetBDHFwJhCECVacVAoVAIFACob4Ikw4BRGijHsVytuBVua6ifLBHLE86AAYZUAmEqTLTNc5CYGwQKIEwNjhWKxMIAVEEa+DVICj+U1RmpcFwHmw0gYYzZqbAxbJKBYcq/3tz/WPWUTU0KALmwHM+FGEOp46jIC0EPggESiB8EKhXn+OOgBuxzX3szEckIEUrD6b6YWUFXKwmKIEw878NvpdWVdjXoQTCzMe/ehweAiUQhodXnd1nCOTqgaGsCuizoQ3bXFX6Hvxk8ye7PQ5nF8Zhd1YXDIoAYVbirL4g/YBACYR+mKWysRAYAwSqBmEMQKwmCoEphEAJhCk02TXUqY1ACYSpPf81+kJguAiUQBguYnV+IdCnCJRA6NOJK7MLgQ8IgRIIHxDw1W0hMLMRKIEwsxGv/gqB/kagBEJ/z19ZXwgMGYESCEOGqk4sBAqB2iipvgOFwNRBoATC1JnrGmkhMBYIVARhLFCsNgqBPkCgBEIfTFKZWAhMIARKIEygyShTCoHxRGA8BELvUyjT/sGeTmlzoIGu6b430J4VvU9vzH4Ga6+LY/fJnF37ZvSkzm4fvfMyVBsHejpn12bt1oZJ4/mtr7ZHg0AJhNGgV9cWAn2EwEgFAjJ8++232wsvvBBk5m/bVs8999zt7LPPbksttVTsDJiPRtbPz372s/bJT36yrbjiiu0f//hHnLfooou29dZbr/3whz9ss846a9ttt93i+RjaPfXUU9uuu+7all9++XhU9y233NIOP/zw6Pe8885rBxxwQDyZ02OjbfZkK+099tijfehDH2pnnXVWe++999qBBx7YZptttmk2vvLKK+3NN9+MH48AX2211doyyyzTnnvuubBvxx13bB/72Mfaxz/+8diK2+ZFSfx//vOf2/e+9702//zzR9/GlkSu76eeeuo/Zt5n8803X1tooYXiqZnXXntte+ONN9p+++3XPCL7D3/4Q/v5z3/ettpqqzbnnHO23/72t+2qq65q2267bdhUIqGP/pGmkKklEKbQZNdQpzYCIxUIdmD8xS9+0b773e8GgSJpRL733nu3b37zm2399ddva6+9dpAcwv/oRz8aOzU+//zz7bjjjmvvv/9+O+GEE9qSSy7ZNt5443bOOee0j3zkI0G8CPrpp59uJ554YhD+hz/84Xb55Ze3Z599NoTHP//5z/bEE0/Esws8eMtDt5Cv7bO/9rWvBakfeeSR0d6CCy44zYY111wzhMBtt93W2P/OO+9Me2AXe2y7PccccwTxr7vuuvFAL6IERo5//etf0S9yZ7fzjH3xxRdv88wzT4zhL3/5S4yXKGGHZywQLJ/73OdCANje27h9dvHFF7eHHnoobJ199tlDMBA266yzTttiiy3iHO/rr45CYKIgUAJhosxE2VEIjDMCIxUIiPG1114L0iYCbr755iBuzxQ4/fTTg1RTOHzqU59q3//+9+N5D5dddlmQ/LnnnhuEjARt78zb9/uqq64aj+MmDpApwuZhI2YPlVpuueUi+oBsef/bbLNNEC1xQEgQBdpD0vPOO2947PonIr70pS+FN++Jnjz2e++9N6IBL730UjyHwjM6Nttss/jsE5/4RHvwwQfbmWeeGf0YI5HjICyQvoiHtkQajjjiiPb666/H6wYbbBCiAR4iAUcddVSMS5SBPQQCLDx+3EPDvGerayIFZpnmMA4RC23VUQhMFARKIEyUmSg7CoFxRmCkAoFZ3Wda/OAHPwiSQ9La3GuvvYIwve93aYW//vWvQdzC95lCWGKJJYJQnefa/fffPyIIjz32WJDzV77ylSB4RIywhd//9re/tauvvjrSASuvvHKkHEQyDjrooIgMXHHFFdEmMUCIHHzwwSEaEL9IBy/93XffbbvvvnsQ8IsvvhipABEBJE5YiILw6LW1yy67tPPPPz+iBqIQRA6xwdO/4IILQrDssMMOYa/r991337BVWuSYY46Jx4wTCNIaxMB3vvOd9sADD7STTjopsFl66aWbB2ZJ0cDHGGBHkMBHNKKOQmCiIFACYaLMRNlRCIwzAqMRCG+99Va77rrrgiAfffTRJkeP3HjjyI+Xf8kll7RTTjklIgBEAM9cdAARHn300W3ZZZeNcDqCzxQDoiQgfK4GQaQhIxW8bEc+2Ih3T3AQByITIgLInjBAvI888kj8LT3AkzfeV199NVICUiS//vWvI0qx0047NfUJUgpSHmzKR4QjcxEOgoG9t99+e3yuxiKfBkpksBcWhIbogj5FEEQopCwygkA0iDTA5Otf/3qkQURdDj300LbYYouFfXvuuWdETgiPeoDWOP8TVPPDQqAEwrDgqpMLgf5FYDQCASmqOUDASHquueYKAuY9qx148sknw2NWc+BVISEhgVjVASDMWWaZJTxnYgPpawdp/ulPf2qXXnppeM9SDvpCvt1DweP2228f3jfSFTGQlhBxePjhh9vCCy8caZCNNtqo3X///WGHGoQbbrihbb311kHkxIH0h/OID54+UUJAsE10QgqDkNh5552jbeIHga+xxhrThIrIhL7//ve/tx//+Mdt9dVXD7Hi/dNOOy3SFBlBEJFQbGk8IibSJv7eZJNNQhSIxEg/iGKIWFSxYv/+f01Gy0sgTMZZrTEVAgMgMFqBgCh55goGETzSE8LnHSNHKQF1AkiOKBBRUJSn4t8qgk033bQtssgiIR7UCRADPGarFHj0m2++eeT4hfWRd64scP0f//jHiE4QE1ZBSEeohVhllVXaNddcEyTufXUFt956a/v2t78d6QMEzJ4777wzruXpr7TSSpECIWCkOhC6wkJREdED0RArJkQV7rrrrogIaMshFWA1xk9/+tOoLRBxEEUhWAgF6YluDYJIwY033tjuueeeECpWcZxxxhlR4HjYYYfFGNjrOqKrjkJgIiFQAmEizUbZUgiMIwJjIRB4ujxuHrKVDPfdd1+kEUQDkDKydCA9AkE4/aabboq6guOPPz6Il3evYp8nrT6AwODZ87ClLSx51AcyRu7p8VsZITogakFs6MOr2gBRDCsLRBoIF8RMjFgRIZ0hKoGohfX1rR+RDkKHl88OyxCzcJCQIEqcJzohjeAQQSFs7r777qiPQPxqB4ybWGELAaJtUQY1CLAirIgX9hIr119/fUQpLHWEibTJUFYwiFqIduSSUjZlwaOxEGojSVP4bii0FMWBnza79RBw0ffMqJEwhlwRM9p/B3abS5g5CEPz3z3MsbETrWN5wFDbQ5nXkfSbcwIr3wdjJHD1mcWvXn13zV3a4jzvD/Rerx0lEEYyM3VNIdCHCIxGIKgTkGKQQ0fYQuVy8/L/lim6QSE/+X03RF4y7xrxuZG5ntevHoEYsDLAPghuXpnTt4zRTUwBIK9d1b8bGY9eFIGwuOiiiyJNoX/evagDYUBc8MaRvVf1AiIaRAViznSBcD7hoR9CQ988eXa5ucJIqsE+CdITDisLtCFyIE2RKzEUF0p3GDdx4MaLFHxOmBAGVjFYCUGwSCsYlxQL+1xvfwjLPdU7wGJGBCxq4Tx4Z21GrgrxNzKcHtGlADKu7u9EgXbhog04wDkP5+o735vRZlcD/Xt0++vtv/s3sjYW36PBNuLK871ObxMtnxN/cDU3RB2B0HuNfnIfjN40T3dTrOltctVrKxz1meJyRpgkPr39decgx5viwKsoWBezPJ9IVQTMBmLAdxcW+d3xu/8FnxmX/8kSCH14Yy+TC4GxQGCkAsFNSKj+kEMOCYJAwgj1wgsvjFfkzNvmDfOmESGBIEWgDkA0wE0svbgkIDdknr9wvfaPPfbYICakjuRc4+D1+R25S0e4kUkHCPsTHd4nAJKgiRH5/RQBCgrdLEU/pAKcZ0yI2t+KCBHHj370oxAyCg3dcI1TxEGURHSBTfZ7MB4rHhBmd/kmQWL1hIJI415hhRViTJlOsLoDTtpP4tKv6AsyJEIIrOnVIRAD+kzSgQs72AsXN33tOcf4jTUjDsZLvCAIhIkYkIc2iCJkQsz4TD/ZZnqn+hGNyX0ltMtur7x+n6d32hU6zte+z8y5z2Ci3bweHt7LZaspDrTpPZjAP0URu30vvO9z5/su6ieX03pf39rIvSrMOzFkrH43Xt9p7znHucaiL22zGZa+l/DNaECOR5/ez/F3bYWvdh22vdQAAAXcSURBVM1H2p3/x7DNtpyXK4LYm+PQ9/TaN36kz0545Hzpg7361q65TDzZ4af3vW5EqnuvqQjCWNx5q41CoA8QSIEg9y6Mn4Q9FNPdEFX9W/KHmJENYrf8Lwv0hP/dpCxHlDbIqn4bBLn5dz0jfbp5bbnlluGps03InVetfsGqBDl5Nz9iQI3CdtttF1X/bqgKCfXDuxdJsG+Cm6ubH3t46ojdjdNKBZs2KYRUP+Hm7/2XX345bsBWD+iH14/YpRQIAaLDjdWYRAOkSXhc2rdighhw80eaSMYPbKUfEIV9IkQ6iABiKpcx5mqIFAKJi3aNZ3oCIQnT3KXXnxEEN3nYsAfeSYLmDpEgMcLCq3HnKpEUYcZmXo0JcSb5aIvXzW5tE1vGnkSjLdfle+mx5/fKdSkEfJaCIiMW2kkS15ZxeWVnChii0pHpkxQIGQ3K6EamE2CKQH3u1dykXV59B3xfkpzz1bhd4/quaPKePn1P/aTQ0ob3My2i3fTmM8UwUETHda5xsDmFHnzN54zaN9e52Zc22Gtc2smxGzNsU+CwI6MU+k4hlO8NlJoqgTCUu2OdUwhMAgRy3wChddX2w825DhQiBksv0SVU3fd7xUH3uv/wWP7PG8ocat78BoO/G/IdKBxtzG6mmWNPzzC9LDdJHqB2EFN6nwOR9EBj6B1HbhqVWzOnd5ekN6P6gBmtYiA20pOdnkBIMmczcWPJadYWIOv0dNnv/a63nGSV6QRE6fcUH1akZEElMsz0A4HgcF5+t3zGFm12x6bPzIkTAwieIHEkwZob85HLSLWVohb5IsSMaMDF797L745zCJusOyB0UlDoO6MGmY/vjjtxI5ayn/wOZuQi5x6e6fmzD+HnvHt/oP+zxKz7OXGihmao7bPfmPN/IAWCcZsjbTlgy4bcDdR5Dt+j7nsZsfuP/8d/D/atnwQ3xBpCIVAI/D8CbhzW9av6V1goVF5HfyEwkEBAqEjCzT7Dyr1kQSC41SNjBOZHSD0JHNF4DyE7JwsSu0SZoiMJH3K9EYEUCOnJuj6JHpG6NlM8REoSZYoWY+BBex1IILjG99h4ewUCEUOgZaopP4cZgjQm56RNsMqC1YwgZCSiO272ZNTJeZkaySiHMcPO312BoA0CYKDcfuJk7tiQ4s08+D1TJhmZcF5v+4kDTIw1MWRLji1tS3GV6T3nuj7t1c9A9S8VQeiv+0NZWwiMGAE3iccffzwK6xTmKazrzY2OuPG6cKYgwAtGvm7wyCwL1BBClwSRIiJDCEgRifBQMw1BMGRxGlLlvfM6M18uZYCQfJbFk+mBI6tutXx65SIVmUpANmzI2gG2+h0R6ZuX7LuXxXPpxWfaA1EmKWYVfqZFsrguBYA2CQ92GGOmPhAvAvReFl1mBMd7fu+mGvSZqRV2ZNpE21nox3aH9zLqJJrCFu3pL3/PsL922d57mDN2+VxfUkLa9F62D2ft+7u3fXMJY0fi6nrn6i/rVDLl4DPtifT4PeeAHZke6rWxBMJM+beuTgqBiYGAm5fVAG4iCgQV4bmRzCi0PTGsn3pW9M5LN83T/R2BIcb0Ks1vPtmyN9WTIfhu8DhD4ikY8zOv3fd628rK/0zlOD+JtZvy8XtvW/l5t/0cUzd1lL8P9p5vRS8W3RRV746cved3/54evr1pr15bu9jk7/rOOclvb0ZyBus33x9K+724DjS2bntdhyCv7Y6rBMLUu8fUiAuBaQi4KSjo81wCHp9CwgUWWCC8mDomHgIKJRU6DjfSwyscLLQ9HqPkwXaX9Y3X2v/xsH282+S19x7TW/o43vYMp/2KIAwHrTq3EJgECBAJVgV4wNAzzzwTVelZJT4JhjephmClhv0iinAn1bT2zWBKIPTNVJWhhcDYIiAsLN/ptRtuHtteqrXRIJCFaaNpo64tBEaKQAmEkSJX1xUChUAhUAgUApMYgRIIk3hya2iFQCFQCBQChcBIESiBMFLk6rpCoBAoBAqBQmASI/A/OoUVOA0ZJJIAAAAASUVORK5CYII=;" parent="1" vertex="1">
          <mxGeometry width="520" height="460" as="geometry" />
        </mxCell>
      </root>
    </mxGraphModel>
  </diagram>
</mxfile>
